<svg width="598" height="676" viewBox="0 0 598 676" fill="none" xmlns="http://www.w3.org/2000/svg">
<path d="M307.179 319.576C308.436 319.96 309.792 319.856 310.976 319.285C312.159 318.713 313.084 317.717 313.565 316.494C314.047 315.27 314.05 313.911 313.573 312.686C313.096 311.461 312.175 310.461 310.994 309.885C309.93 309.466 308.782 309.31 307.645 309.43C306.508 309.55 305.417 309.941 304.464 310.572C303.742 311.237 303.221 312.091 302.962 313.038C302.702 313.985 302.715 314.986 302.999 315.925C303.282 316.865 303.824 317.706 304.564 318.352C305.303 318.998 306.21 319.422 307.179 319.576ZM305.22 314.284C305.22 311.397 310.96 311.053 311.51 314.284C312.575 318.786 305.048 318.511 305.22 314.284ZM303.158 99.6225C297.866 105.843 299.137 113.851 307.454 117.769C309.336 117.283 311.256 116.961 313.194 116.806C315.402 116.951 317.596 117.261 319.758 117.734C322.051 116.356 323.834 114.27 324.838 111.791C325.842 109.311 326.013 106.572 325.325 103.987C324.685 101.739 323.436 99.7112 321.716 98.1282C319.996 96.5452 317.872 95.4684 315.578 95.0168C313.285 94.5652 310.911 94.7564 308.719 95.5691C306.527 96.3819 304.603 97.7846 303.158 99.6225ZM301.234 159.285C301.193 159.082 301.084 158.9 300.924 158.769C300.764 158.637 300.564 158.566 300.357 158.566C300.151 158.566 299.95 158.637 299.79 158.769C299.631 158.9 299.521 159.082 299.481 159.285C299.226 161.2 299.076 163.127 299.034 165.059C299.124 165.334 299.299 165.573 299.534 165.743C299.768 165.913 300.051 166.004 300.34 166.004C300.63 166.004 300.912 165.913 301.146 165.743C301.381 165.573 301.556 165.334 301.646 165.059C301.818 164.475 301.234 159.869 301.234 159.285ZM328.35 159.904C328.309 159.701 328.2 159.518 328.04 159.387C327.88 159.256 327.68 159.184 327.473 159.184C327.267 159.184 327.066 159.256 326.907 159.387C326.747 159.518 326.637 159.701 326.597 159.904C326.597 160.385 326.013 165.024 326.185 165.677C326.275 165.952 326.45 166.192 326.684 166.362C326.919 166.531 327.201 166.623 327.491 166.623C327.78 166.623 328.062 166.531 328.297 166.362C328.531 166.192 328.706 165.952 328.797 165.677C328.968 165.024 328.35 160.419 328.35 159.904ZM301.474 147.978C297.35 147.634 295.46 154.027 295.391 154.302C295.332 154.498 295.353 154.709 295.45 154.89C295.546 155.07 295.711 155.205 295.907 155.264C296.103 155.323 296.314 155.302 296.495 155.205C296.675 155.109 296.81 154.944 296.869 154.748C297.075 154.233 299.275 150.487 301.852 150.624C303.158 150.727 303.811 148.15 301.474 147.978ZM329.381 155.23C329.317 154.018 328.885 152.856 328.141 151.897C327.398 150.939 326.38 150.231 325.222 149.868C324.876 149.777 324.508 149.827 324.198 150.008C323.889 150.188 323.664 150.484 323.573 150.831C323.482 151.177 323.532 151.545 323.712 151.855C323.893 152.164 324.189 152.389 324.535 152.48C325.38 152.78 326.136 153.287 326.736 153.953C327.336 154.619 327.761 155.424 327.972 156.295C328.026 156.482 328.153 156.639 328.324 156.733C328.495 156.826 328.696 156.848 328.883 156.793C329.069 156.739 329.227 156.612 329.32 156.441C329.414 156.27 329.436 156.069 329.381 155.883C329.381 155.883 329.45 155.505 329.381 155.23ZM313.469 173.479C313.606 173.434 313.726 173.346 313.811 173.229C313.896 173.112 313.941 172.971 313.941 172.826C313.941 172.681 313.896 172.54 313.811 172.423C313.726 172.306 313.606 172.218 313.469 172.173C311.888 171.864 310.032 171.76 310.032 170.214C310.213 168.284 310.512 166.368 310.925 164.475C310.944 164.304 310.902 164.132 310.806 163.989C310.709 163.847 310.565 163.744 310.399 163.698C310.234 163.653 310.057 163.668 309.902 163.741C309.746 163.814 309.622 163.94 309.551 164.096C308.696 166.312 308.096 168.618 307.763 170.97C307.832 173.032 310.032 174.579 313.469 173.479ZM317.765 177.981C317.008 178.8 316.079 179.44 315.045 179.856C314.011 180.273 312.897 180.454 311.785 180.387C311.022 180.259 310.294 179.973 309.649 179.547C309.004 179.12 308.455 178.564 308.038 177.912C307.943 177.735 307.78 177.602 307.587 177.544C307.394 177.486 307.185 177.507 307.007 177.603C306.83 177.699 306.697 177.861 306.639 178.054C306.581 178.248 306.602 178.456 306.698 178.634C307.248 179.826 308.109 180.847 309.191 181.589C310.273 182.332 311.535 182.768 312.845 182.853C314.154 182.937 315.463 182.667 316.631 182.069C317.799 181.472 318.785 180.57 319.483 179.459C319.93 178.325 318.692 177.156 317.765 177.981ZM317.386 382.195C317.472 382.254 317.574 382.285 317.679 382.285C317.783 382.285 317.885 382.254 317.971 382.195C321.648 379.892 349.314 357.897 351.582 355.938C351.658 355.868 351.711 355.776 351.734 355.676C351.757 355.576 351.75 355.471 351.713 355.374C351.676 355.278 351.611 355.195 351.527 355.136C351.442 355.078 351.342 355.045 351.239 355.044C351.239 355.044 294.532 353.944 284.531 353.601C283.947 353.601 283.844 354.219 284.153 354.494C285.974 356.281 307.935 374.943 317.386 382.195ZM436.849 646.93C439.427 641.672 434.615 632.839 432.45 629.265C432.408 629.178 432.342 629.104 432.26 629.053C432.178 629.001 432.083 628.974 431.986 628.974C431.889 628.974 431.794 629.001 431.712 629.053C431.63 629.104 431.564 629.178 431.522 629.265C429.769 632.702 426.092 641.706 429.597 646.895C431.969 650.745 434.993 651.02 436.849 646.93ZM227.549 609.984C227.205 610.191 202.048 624.659 201.086 626.137C200.124 627.615 200.158 628.715 201.464 628.818C211.774 629.471 215.727 630.33 216.139 630.811C216.792 633.114 217.514 642.462 218.888 644.318C219.035 644.547 219.244 644.728 219.492 644.841C219.739 644.953 220.014 644.992 220.282 644.952C220.551 644.912 220.803 644.795 221.006 644.616C221.21 644.436 221.358 644.201 221.432 643.94C222.875 638.51 227.412 621.601 228.305 618.817C229.199 616.033 230.711 608.85 227.549 609.984ZM227.068 613.215C226.724 615.483 225.075 622.048 220.194 638.819C219.791 635.32 219.054 631.868 217.995 628.509C213.882 627.279 209.635 626.552 205.347 626.343C212.427 621.944 219.851 617.717 226.965 613.215H227.068ZM245.317 624.178C245.6 624.152 245.865 624.029 246.067 623.83C246.27 623.631 246.398 623.369 246.431 623.087C246.463 622.805 246.397 622.52 246.245 622.281C246.092 622.042 245.861 621.862 245.592 621.773C244.321 621.401 242.998 621.239 241.674 621.291V616.308C241.674 616.071 241.58 615.844 241.412 615.676C241.245 615.509 241.018 615.415 240.781 615.415C240.544 615.415 240.316 615.509 240.149 615.676C239.981 615.844 239.887 616.071 239.887 616.308C239.887 618.095 239.578 619.745 239.44 621.429C237.825 621.429 236.21 621.738 234.526 621.979C232.842 622.219 233.563 624.144 234.801 624.041C236.254 623.955 237.712 623.955 239.165 624.041C239.165 625.553 238.856 627.168 238.787 628.715C238.842 629.072 239.022 629.399 239.297 629.634C239.571 629.87 239.921 630 240.282 630C240.644 630 240.994 629.87 241.268 629.634C241.542 629.399 241.723 629.072 241.777 628.715V624.144C242.955 624.231 244.138 624.243 245.317 624.178ZM328.109 605.379C327.815 604.514 327.268 603.756 326.539 603.205C325.81 602.654 324.932 602.334 324.019 602.286C320.858 602.286 317.902 606.17 315.393 609.778H315.153C312.712 608.06 311.956 608.06 309.688 610.466C306.664 613.731 307.935 614.315 311.853 617.339C309.207 621.016 302.54 630.502 301.543 632.22C300.546 633.939 297.625 638.785 300.856 641.465C301.519 641.94 302.321 642.181 303.136 642.15C303.951 642.119 304.733 641.817 305.358 641.293C310.35 635.241 314.942 628.869 319.105 622.219C322.542 624.281 322.817 624.694 325.497 622.494C325.886 622.24 326.212 621.901 326.45 621.502C326.689 621.103 326.833 620.655 326.872 620.192C326.872 618.508 324.844 617.339 323.435 616.205C324.638 614.452 325.703 612.768 326.666 611.015C327.304 610.239 327.764 609.331 328.013 608.358C328.263 607.384 328.295 606.367 328.109 605.379ZM317.249 611.05C318.387 609.511 319.603 608.031 320.892 606.616C322.576 604.795 323.813 604.348 324.947 605.139C326.872 606.41 325.807 607.544 321.854 614.727L317.249 611.05ZM302.643 639.713C300.684 639.266 301.955 636.276 302.883 634.489C303.811 632.702 310.788 622.597 313.469 618.508C314.534 619.264 316.321 620.432 317.18 620.948C314.843 624.934 308.21 634.695 306.87 636.207C305.53 637.719 304.292 640.091 302.643 639.713ZM312.438 610.569L312.987 610.775C313.537 610.981 324.741 620.123 324.741 620.329C324.241 621.07 323.584 621.692 322.817 622.151C321.511 621.12 313.4 615.621 310.375 613.249C311.005 612.313 311.694 611.418 312.438 610.569ZM388.253 627.718C388.253 627.718 403.856 644.455 405.231 644.902C407.533 645.521 419.974 631.155 421.624 629.23C423.239 630.605 424.064 630.846 425.886 629.024C427.012 627.846 427.951 626.501 428.669 625.038C428.79 624.811 428.834 624.553 428.797 624.299C428.76 624.046 428.643 623.811 428.463 623.628C410.97 605.895 407.843 602.595 407.121 602.32C404.853 601.358 403.684 604.142 402.344 605.139C400.488 606.926 399.491 607.476 402.55 610.912C388.597 626.034 387.497 625.931 388.253 627.718ZM402.962 607.544C403.878 606.488 404.903 605.531 406.021 604.692C406.021 604.692 416.331 615.002 426.092 624.625C425.468 625.789 424.706 626.873 423.824 627.856C423.446 627.478 403.512 608.129 402.825 607.544H402.962ZM420.146 627.649C405.162 643.527 406.674 642.909 405.093 641.397C404.165 640.606 392.652 628.749 390.899 626.722C392.136 625.347 403.547 612.974 404.303 612.287C404.131 612.425 417.672 625.519 420.009 627.649H420.146Z" fill="url(#paint0_linear_181_1015)"/>
<path d="M402 620.398C398.563 624.041 395.882 625.106 396.26 627.065C397.939 629.552 399.874 631.856 402.034 633.939C402.166 634.046 402.33 634.106 402.5 634.109C402.67 634.111 402.836 634.057 402.971 633.953C403.106 633.85 403.203 633.704 403.245 633.54C403.287 633.375 403.272 633.201 403.203 633.045C403.203 633.045 400.488 628.406 399.319 626.859C399.594 626.515 402.515 622.597 403.306 621.704C403.479 621.531 403.576 621.296 403.576 621.051C403.576 620.806 403.479 620.571 403.306 620.398C403.133 620.225 402.898 620.127 402.653 620.127C402.408 620.127 402.173 620.225 402 620.398Z" fill="black"/>
<path d="M452.727 662.567L368.457 662.017C368.457 656.14 366.567 607.338 366.429 603.18C366.429 601.908 364.402 601.908 364.47 603.18C364.47 606.616 365.708 658.787 365.88 661.983H274.152C274.152 656.415 273.258 612.734 273.19 609.744C273.19 609.498 273.092 609.262 272.918 609.088C272.744 608.914 272.508 608.816 272.262 608.816C272.016 608.816 271.78 608.914 271.606 609.088C271.432 609.262 271.334 609.498 271.334 609.744V661.983C264.185 661.983 188.851 661.983 178.541 662.739C178.321 662.781 178.123 662.899 177.98 663.071C177.837 663.244 177.759 663.46 177.759 663.684C177.759 663.908 177.837 664.125 177.98 664.297C178.123 664.47 178.321 664.587 178.541 664.629C187.717 665.042 444.479 665.523 452.899 663.564C453.01 663.521 453.103 663.441 453.162 663.337C453.221 663.234 453.243 663.113 453.222 662.995C453.202 662.877 453.141 662.771 453.051 662.693C452.961 662.614 452.846 662.57 452.727 662.567ZM205.554 42.4345C206.344 43.8092 214.386 44.256 215.108 43.9811C215.582 43.8146 215.992 43.5017 216.277 43.0875C219.003 45.3613 221.86 47.4728 224.834 49.4112C225.258 49.754 225.75 50.0045 226.276 50.1465C226.803 50.2886 227.354 50.319 227.893 50.236C229.336 49.8236 256.452 33.6707 256.865 33.3958C258.652 32.296 258.686 31.1962 258.446 30.4745C257.93 29.0654 230.23 16.0744 225.796 11.2285C225.668 11.1355 225.522 11.0689 225.368 11.0323C225.214 10.9958 225.054 10.9902 224.897 11.0157C224.741 11.0413 224.591 11.0975 224.456 11.1812C224.321 11.2649 224.205 11.3745 224.112 11.5035C220.676 15.4558 217.617 19.5112 214.489 23.5322C211.34 23.4352 208.193 23.7823 205.141 24.5632C204.805 30.5218 204.942 36.4978 205.554 42.4345ZM229.164 32.1242C228.814 33.084 228.147 33.896 227.274 34.4268C225.556 35.0111 223.837 33.3958 223.253 32.674C221.363 30.4745 225.659 25.8005 228.511 29.4778C228.868 29.85 229.117 30.3117 229.232 30.814C229.347 31.3162 229.323 31.8402 229.164 32.3304V32.1242ZM226.69 25.7661C225.661 25.5854 224.603 25.694 223.632 26.0798C222.662 26.4656 221.818 27.1134 221.194 27.951C220.57 28.7886 220.192 29.783 220.1 30.8233C220.008 31.8636 220.208 32.9089 220.676 33.8425C221.377 34.9968 222.403 35.9188 223.626 36.4934C224.848 37.0679 226.213 37.2696 227.549 37.0731C228.472 36.7365 229.292 36.1673 229.93 35.4207C230.568 34.6741 231.003 33.7754 231.192 32.8115C234.973 32.8115 247.964 32.8115 253.153 32.5709L227.549 47.4866C226.106 46.868 217.651 40.613 216.62 39.7882C216.62 37.8979 216.62 26.5909 216.38 24.7694C219.267 21.3327 222.222 17.6553 225.04 13.978C229.233 17.4147 248.582 27.7251 254.253 30.7151H231.295C231.146 29.5321 230.616 28.4298 229.785 27.5744C228.954 26.7189 227.868 26.1567 226.69 25.9723V25.7661ZM207.444 26.3847L213.802 26.1442C213.802 27.2096 214.214 39.8913 214.043 41.6784C211.873 41.8215 209.694 41.7177 207.547 41.3691C207.753 38.9977 207.581 29.2716 207.444 26.5909V26.3847ZM99.8384 207.056C100.199 207.264 100.608 207.374 101.024 207.374C101.44 207.374 101.849 207.264 102.21 207.056C104.925 205.716 110.321 201.008 126.061 190.594C126.523 190.343 126.921 189.99 127.225 189.561C127.529 189.132 127.73 188.639 127.814 188.12C127.814 188.12 128.398 173.445 127.573 172.963C124.927 171.314 117.263 166.09 115.063 166.434C114.788 166.434 85.7819 184.511 85.7132 185.37C85.426 189.121 85.3686 192.885 85.5414 196.643C90.075 200.422 94.8508 203.9 99.8384 207.056ZM87.6378 187.742C90.2841 189.529 97.6732 194.615 99.7009 195.646V203.482C86.8473 194.89 87.6722 196.334 87.7753 193.79C87.8096 192.381 87.7065 189.082 87.6378 187.742ZM101.11 192.794C100.891 192.956 100.626 193.043 100.354 193.043C100.082 193.043 99.8167 192.956 99.5978 192.794C99.0479 192.45 91.3495 186.951 89.2874 185.473C116.301 168.289 115.338 168.083 116.782 168.599C117.469 168.874 120.7 170.936 125.064 173.823C119.909 178.222 101.625 192.45 101.11 192.794ZM125.167 188.223C124.446 188.91 105.853 201.248 101.729 203.929V195.337C104.169 193.481 120.287 180.834 125.305 176.538C125.442 187.879 125.649 187.879 125.339 188.223H125.167ZM480.771 209.153C487.189 209.003 493.434 207.037 498.78 203.482C501.447 201.802 503.455 199.256 504.469 196.272C505.482 193.287 505.439 190.045 504.347 187.089C506.616 185.37 513.867 179.218 515.276 177.878C518.198 178.05 521.6 172.86 523.422 170.042C524.178 168.874 525.174 167.671 524.659 166.33C520.019 161.42 515.108 156.773 509.949 152.411C509.605 152.047 509.157 151.795 508.666 151.691C508.175 151.587 507.663 151.634 507.2 151.827C503.778 155.146 500.692 158.795 497.989 162.722C497.871 163.231 497.932 163.765 498.161 164.234C498.161 164.475 493.384 178.325 492.8 180.009C490.228 180.268 487.84 181.46 486.086 183.36C484.332 185.259 483.334 187.735 483.28 190.319C482.868 200.355 490.807 203.585 480.462 207.297C480.318 207.42 480.209 207.578 480.145 207.756C480.08 207.934 480.063 208.125 480.094 208.312C480.125 208.499 480.203 208.674 480.322 208.821C480.441 208.969 480.595 209.083 480.771 209.153ZM500.636 163.34C502.869 160.06 505.501 157.07 508.472 154.439C510.328 155.917 521.05 165.815 522.219 167.43C521.36 168.908 516.548 175.163 515.345 175.3C515.242 175.197 501.083 163.753 500.636 163.34ZM503.11 184.855C501.358 182.287 498.668 180.509 495.618 179.906C496.305 177.603 498.814 169.183 499.673 165.781C502.285 168.014 508.747 173.445 512.699 176.572C511.152 178.119 505.31 183.102 503.11 184.855ZM486.27 206.438C488.951 203.998 488.298 200.801 487.06 197.743C484.861 190.869 485.514 186.436 489.191 183.995C490.14 183.393 491.2 182.987 492.308 182.799C493.416 182.611 494.551 182.647 495.645 182.903C496.74 183.159 497.772 183.63 498.682 184.29C499.592 184.95 500.361 185.784 500.945 186.745C506.375 195.303 496.202 204.479 486.27 206.438ZM265.904 32.1242C267.313 32.1242 275.561 31.0588 283.088 30.2683C283.352 30.2683 283.605 30.1633 283.792 29.9764C283.979 29.7895 284.084 29.536 284.084 29.2716C284.084 29.0073 283.979 28.7538 283.792 28.5669C283.605 28.38 283.352 28.275 283.088 28.275C280.269 28.5499 267.038 29.3404 265.594 29.6497C265.315 29.7427 265.077 29.9294 264.921 30.1781C264.764 30.4267 264.698 30.722 264.735 31.0137C264.771 31.3053 264.908 31.5754 265.121 31.7778C265.334 31.9803 265.61 32.1027 265.904 32.1242ZM292.848 29.9246C293.776 29.9246 312.025 28.4124 316.046 28.6186C317.387 28.6186 317.49 26.6597 316.046 26.5566C308.191 26.1735 300.318 26.4264 292.504 27.3127C292.207 27.41 291.954 27.608 291.787 27.8725C291.621 28.137 291.552 28.4514 291.593 28.7612C291.634 29.071 291.781 29.3568 292.011 29.5693C292.24 29.7817 292.536 29.9074 292.848 29.9246ZM326.391 27.9657L341.203 27.5532C341.449 27.5086 341.671 27.3792 341.831 27.1877C341.991 26.9961 342.078 26.7545 342.078 26.505C342.078 26.2555 341.991 26.0139 341.831 25.8224C341.671 25.6308 341.449 25.5014 341.203 25.4568L326.46 25.0444C326.109 25.0893 325.786 25.2583 325.55 25.5209C325.313 25.7834 325.178 26.1221 325.17 26.4755C325.162 26.8288 325.28 27.1735 325.504 27.4469C325.728 27.7203 326.043 27.9043 326.391 27.9657ZM352.992 28.4468C359.315 28.4468 382.136 29.5122 387.703 30.4745C389.078 30.7494 389.559 28.6186 388.184 28.3781C376.525 26.6051 364.75 25.709 352.957 25.6974C352.593 25.7019 352.245 25.8511 351.99 26.1122C351.736 26.3732 351.595 26.7247 351.6 27.0893C351.604 27.4539 351.754 27.8017 352.015 28.0563C352.276 28.3109 352.627 28.4514 352.992 28.4468ZM398.804 34.3924C407.902 37.0835 416.309 41.7149 423.446 47.9677C424.545 48.9644 426.092 47.3491 425.027 46.3524C417.818 39.4467 409.045 34.3882 399.457 31.6086C399.11 31.5766 398.763 31.6711 398.481 31.8746C398.198 32.0782 397.998 32.3772 397.919 32.7163C397.839 33.0555 397.885 33.412 398.048 33.72C398.21 34.0281 398.479 34.2669 398.804 34.3924ZM429.288 80.2391C429.003 80.3086 428.754 80.4799 428.586 80.7206C428.419 80.9613 428.345 81.2549 428.379 81.5462C428.412 81.8375 428.551 82.1064 428.77 82.3024C428.988 82.4984 429.27 82.6079 429.563 82.6105C434.1 82.6105 439.427 77.3178 439.873 69.9975C440.32 62.6771 435.303 56.8002 430.491 51.8857C430.286 51.676 430.006 51.5564 429.713 51.5532C429.419 51.55 429.137 51.6634 428.927 51.8685C428.718 52.0736 428.598 52.3535 428.595 52.6468C428.592 52.94 428.705 53.2226 428.91 53.4322C434.34 59.0685 436.987 64.2237 437.021 69.2414C437.112 71.668 436.405 74.0576 435.009 76.044C433.612 78.0304 431.603 79.5041 429.288 80.2391ZM391.793 91.4086C395.23 91.4086 417.878 86.2191 421.624 85.3255C421.886 85.239 422.107 85.0569 422.241 84.8155C422.375 84.5741 422.413 84.291 422.349 84.0225C422.284 83.754 422.12 83.5198 421.89 83.3665C421.661 83.2131 421.382 83.1518 421.109 83.1947C415.988 84.3632 397.91 87.5251 391.552 88.6248C391.218 88.6984 390.923 88.8908 390.72 89.1663C390.518 89.4418 390.422 89.7816 390.452 90.1223C390.481 90.4629 390.633 90.7813 390.88 91.0179C391.127 91.2546 391.451 91.3935 391.793 91.4086ZM382.479 89.1404C375.159 89.9308 367.495 90.6182 360.106 91.7179C359.795 91.8109 359.526 92.0082 359.344 92.2765C359.162 92.5448 359.078 92.8676 359.106 93.1906C359.134 93.5136 359.273 93.817 359.499 94.0496C359.725 94.2822 360.024 94.4297 360.346 94.4674C362.443 94.4674 379.214 92.2678 382.582 91.8554C384.335 91.6148 384.232 88.8998 382.479 89.1404ZM330.653 97.9385C332.646 97.9385 346.393 95.7046 349.589 95.2578C349.857 95.1903 350.091 95.0272 350.248 94.7991C350.404 94.5711 350.472 94.2939 350.438 94.0195C350.404 93.7451 350.271 93.4926 350.064 93.3092C349.857 93.1259 349.591 93.0244 349.314 93.0239C345.121 93.5051 334.502 94.433 330.378 95.1547C330.042 95.2298 329.745 95.4252 329.543 95.7041C329.342 95.9829 329.249 96.3259 329.283 96.6683C329.317 97.0107 329.475 97.329 329.727 97.563C329.979 97.7969 330.309 97.9305 330.653 97.9385ZM273.293 102.887C280.647 102.887 288.174 101.582 295.46 100.894C296.972 100.894 296.972 98.3853 295.46 98.5228C288.14 99.107 280.476 99.4163 273.086 100.447C271.609 100.619 271.78 102.887 273.293 102.887ZM237.069 106.049C236.767 106.121 236.502 106.3 236.323 106.554C236.144 106.807 236.064 107.117 236.098 107.425C236.132 107.734 236.277 108.019 236.507 108.227C236.736 108.436 237.034 108.554 237.344 108.558C239.681 108.558 258.549 105.774 261.401 105.396C261.702 105.326 261.965 105.145 262.139 104.89C262.313 104.636 262.386 104.325 262.343 104.019C262.3 103.714 262.144 103.435 261.907 103.239C261.669 103.042 261.366 102.941 261.058 102.956C256.556 103.506 240.884 105.259 237.069 106.049ZM184.727 115.879C198.064 113.08 211.545 111.015 225.109 109.692C226.896 109.692 226.827 106.771 225.109 106.943C211.376 107.761 197.751 109.878 184.418 113.267C184.122 113.362 183.869 113.557 183.701 113.818C183.533 114.08 183.462 114.391 183.498 114.7C183.535 115.008 183.677 115.294 183.901 115.509C184.125 115.724 184.417 115.855 184.727 115.879ZM138.743 133.612C147.908 128.121 157.918 124.185 168.368 121.962C170.189 121.584 169.468 118.834 167.68 119.212C156.919 121.349 146.606 125.325 137.196 130.966C136.901 131.196 136.7 131.526 136.63 131.894C136.559 132.261 136.625 132.642 136.813 132.965C137.002 133.288 137.302 133.531 137.657 133.651C138.011 133.77 138.397 133.756 138.743 133.612ZM109.702 161.244C113.495 151.027 120.806 142.498 130.323 137.187C131.594 136.499 130.529 134.609 129.223 135.262C118.862 140.412 110.903 149.382 107.021 160.282C106.368 162.206 109.049 162.962 109.702 161.244ZM117.194 202.348C116.163 201.179 114.513 202.795 115.476 203.929C117.881 206.713 130.563 216.473 133.141 216.473C133.411 216.471 133.673 216.38 133.887 216.215C134.101 216.049 134.255 215.818 134.325 215.557C134.395 215.296 134.378 215.019 134.276 214.768C134.174 214.518 133.992 214.308 133.759 214.17C127.93 210.68 122.39 206.726 117.194 202.348ZM165.103 224.378C157.345 223.611 149.752 221.652 142.592 218.57C141.011 217.882 139.705 220.219 141.32 220.975C148.761 224.5 156.789 226.621 165 227.23C166.89 227.333 166.89 224.584 165.103 224.378ZM172.561 229.086C176.547 229.67 192.803 232.317 196.927 232.523C197.269 232.533 197.602 232.416 197.862 232.193C198.122 231.971 198.289 231.66 198.332 231.321C198.375 230.982 198.29 230.639 198.094 230.36C197.898 230.08 197.604 229.883 197.271 229.808C193.319 228.983 177.2 227.058 173.214 226.371C171.598 226.337 170.945 228.811 172.561 229.086ZM225.521 233.279C218.854 233.871 212.135 233.313 205.657 231.629C205.387 231.599 205.116 231.666 204.891 231.818C204.667 231.971 204.505 232.199 204.434 232.461C204.363 232.723 204.389 233.001 204.506 233.246C204.623 233.491 204.824 233.685 205.073 233.794C211.761 235.743 218.749 236.454 225.693 235.891C227.24 235.719 227.205 233.176 225.521 233.279ZM453.93 216.404C461.093 215.62 468.154 214.088 474.997 211.833C476.441 211.352 475.822 209.084 474.344 209.531C467.668 211.471 460.82 212.76 453.896 213.38C451.902 213.586 451.937 216.576 453.93 216.404ZM422.037 219.016C421.76 219.105 421.521 219.285 421.362 219.528C421.202 219.771 421.13 220.061 421.158 220.351C421.186 220.64 421.312 220.911 421.516 221.118C421.72 221.326 421.988 221.457 422.277 221.491C424.786 221.491 441.936 218.466 444.857 218.054C446.541 217.745 445.888 215.305 444.273 215.545C435.406 216.817 428.807 217.71 422.037 219.016ZM413.135 220.082C404.578 221.594 395.951 222.487 387.772 223.278C385.985 223.484 386.053 226.234 387.772 226.096C396.429 225.399 405.044 224.252 413.582 222.659C413.751 222.63 413.913 222.568 414.058 222.476C414.203 222.384 414.329 222.264 414.428 222.124C414.527 221.983 414.597 221.825 414.635 221.657C414.673 221.49 414.677 221.316 414.648 221.147C414.618 220.978 414.556 220.816 414.464 220.671C414.372 220.526 414.252 220.4 414.112 220.301C413.972 220.202 413.813 220.132 413.646 220.094C413.478 220.057 413.305 220.052 413.135 220.082ZM162.044 342.569C163.556 342.569 163.625 340.438 162.044 340.232C155.072 339.193 147.984 339.193 141.011 340.232C140.681 340.304 140.39 340.499 140.198 340.777C140.005 341.055 139.925 341.395 139.972 341.73C140.02 342.065 140.193 342.369 140.455 342.582C140.718 342.795 141.052 342.901 141.389 342.878C148.251 342.162 155.164 342.058 162.044 342.569ZM467.196 340.747C466.911 340.837 466.665 341.022 466.499 341.271C466.334 341.52 466.259 341.818 466.287 342.116C466.315 342.414 466.445 342.693 466.654 342.907C466.863 343.12 467.139 343.256 467.436 343.29C467.78 343.29 485.892 342.775 490.257 343.29C491.425 343.462 491.803 341.675 490.635 341.503C482.857 340.595 475.016 340.342 467.196 340.747ZM457.813 343.462C458.087 343.462 458.349 343.353 458.543 343.16C458.736 342.967 458.845 342.705 458.845 342.431C458.845 342.158 458.736 341.895 458.543 341.702C458.349 341.509 458.087 341.4 457.813 341.4C452.748 341.071 447.661 341.43 442.692 342.465C441.214 342.775 441.626 344.94 443.035 344.94C447.883 343.847 452.846 343.351 457.813 343.462ZM536.035 386.113C535.76 387.487 537.753 388.347 538.337 387.006C541.293 380.339 542.771 370.132 539.059 362.949C538.337 361.574 536.275 362.742 536.963 364.117C541.121 372.365 537.134 380.786 536.035 386.113ZM121.009 489.216C116.174 493.233 112.129 498.117 109.083 503.616C109.016 503.729 108.971 503.854 108.951 503.984C108.932 504.114 108.939 504.247 108.97 504.375C109.035 504.632 109.199 504.854 109.427 504.991C109.655 505.128 109.928 505.168 110.186 505.104C110.443 505.039 110.665 504.875 110.802 504.647C113.946 499.465 117.97 494.871 122.693 491.072C124.068 490.075 122.384 488.288 121.009 489.216ZM143.967 469.042C139.258 472.565 134.78 476.388 130.563 480.487C130.358 480.696 130.245 480.979 130.248 481.272C130.251 481.565 130.371 481.845 130.58 482.05C130.79 482.255 131.073 482.369 131.366 482.366C131.659 482.362 131.939 482.243 132.144 482.033C134.069 480.005 144.413 471.929 145.444 471.07C146.475 470.211 145.238 468.595 143.967 469.042ZM154.277 462.787C154.999 462.787 152.868 463.475 165.687 455.02C165.954 454.835 166.143 454.557 166.217 454.24C166.29 453.924 166.242 453.591 166.083 453.307C165.924 453.024 165.665 452.81 165.357 452.707C165.048 452.604 164.713 452.62 164.415 452.752C160.628 455.333 157.012 458.157 153.59 461.206C153.474 461.343 153.399 461.51 153.373 461.687C153.348 461.864 153.372 462.045 153.443 462.21C153.515 462.374 153.631 462.515 153.778 462.617C153.925 462.719 154.098 462.778 154.277 462.787Z" fill="url(#paint1_linear_181_1015)"/>
<path d="M171.839 449.177C172.732 449.555 172.148 449.177 182.974 442.304C182.277 450.934 182.404 459.611 183.352 468.217C177.99 465.303 172.844 462.007 167.955 458.354C167.027 457.632 165.79 458.938 166.752 459.728C172.093 464.304 177.846 468.377 183.936 471.894C188.441 506.107 205.895 537.289 232.704 559.017C220.4 561.904 212.633 563.519 209.609 563.828C208.303 563.828 208.303 565.959 209.609 565.959C212.599 565.959 231.639 562.247 235.66 561.423C285.012 600.705 349.898 596.856 397.188 560.666C406.656 563.169 416.276 565.052 425.989 566.303C426.29 566.28 426.574 566.154 426.793 565.945C427.011 565.736 427.151 565.458 427.187 565.158C427.224 564.858 427.155 564.555 426.993 564.3C426.831 564.045 426.585 563.854 426.298 563.76C422.036 563.038 410.076 560.77 399.766 558.639C425.622 538.161 442.854 508.727 448.053 476.156C449.359 475.331 450.63 474.438 451.868 473.51C453.105 472.582 451.868 470.417 450.527 471.276L448.568 472.479C452.761 435.98 439.908 399.619 417.19 372.297C423.652 365.182 428.154 356.762 425.508 347.414C428.764 346.422 432.082 345.641 435.44 345.077C436.952 344.871 436.402 342.637 434.959 342.843C431.478 343.288 428.033 343.977 424.648 344.905C422.138 338.682 417.827 333.349 412.267 329.59C406.708 325.83 400.153 323.816 393.442 323.804C398.932 318.032 402.961 311.03 405.191 303.382C407.421 295.735 407.788 287.665 406.262 279.847C399.903 250.635 377.186 222.865 348.592 206.884C349.293 203.017 349.081 199.039 347.974 195.268C347.218 191.831 344.949 190.663 342.303 188.944C340.928 188.051 339.622 187.226 338.179 186.401C341.971 180.5 343.954 173.619 343.884 166.605C351.617 165.849 351.892 154.577 343.403 152.858C352.029 112.373 277.142 105.499 281.541 154.164C280.015 154.599 278.649 155.467 277.606 156.663C276.563 157.858 275.888 159.33 275.664 160.9C275.46 161.977 275.525 163.087 275.853 164.132C276.18 165.178 276.761 166.127 277.542 166.894C278.324 167.662 279.282 168.226 280.333 168.535C281.385 168.844 282.496 168.89 283.568 168.667C283.253 173.118 284.181 177.568 286.249 181.521C284.53 181.916 282.929 182.714 281.579 183.85C280.228 184.985 279.167 186.425 278.482 188.051C276.959 192.388 276.661 197.062 277.623 201.557C250.3 214.022 228.455 236.014 216.173 263.419C206.447 285.587 211.19 301.808 228.374 318.717C220.678 316.235 212.361 316.49 204.832 319.439C200.11 321.47 195.887 324.505 192.456 328.333C189.026 332.161 186.47 336.691 184.967 341.606C181.661 341.078 178.305 340.939 174.966 341.194C174.738 341.237 174.532 341.358 174.383 341.537C174.235 341.716 174.154 341.941 174.154 342.173C174.154 342.406 174.235 342.631 174.383 342.809C174.532 342.988 174.738 343.11 174.966 343.153C178.132 343.018 181.3 343.389 184.349 344.252C181.977 358.721 194.247 370.956 206.172 379.548C193.373 396.937 185.491 417.451 183.352 438.936C179.319 441.393 175.429 444.078 171.701 446.978C171.505 447.094 171.345 447.262 171.238 447.464C171.131 447.665 171.082 447.892 171.097 448.12C171.111 448.347 171.188 448.566 171.319 448.753C171.45 448.94 171.63 449.087 171.839 449.177ZM323.779 195.715L325.222 195.268C326.013 196.093 328.144 197.949 329.449 199.048C319.242 204.41 306.595 203.963 293.398 197.536C294.875 196.196 297.281 193.756 298.175 192.725C300.538 193.63 302.947 194.41 305.392 195.062C306.395 196.549 307.736 197.778 309.305 198.648C310.874 199.519 312.626 200.005 314.419 200.069C316.212 200.133 317.995 199.771 319.621 199.015C321.248 198.258 322.673 197.127 323.779 195.715ZM296.285 191.762C295.116 193.068 292.504 195.852 291.645 196.574C290.683 196.047 289.72 195.497 288.758 194.924C288.571 194.81 288.347 194.775 288.134 194.827C287.921 194.878 287.738 195.012 287.624 195.199C287.51 195.386 287.475 195.611 287.526 195.823C287.578 196.036 287.712 196.219 287.899 196.333C296.25 201.695 304.395 205.75 314.259 205.75C318.255 205.94 322.243 205.232 325.93 203.68C329.617 202.128 332.91 199.771 335.567 196.78C335.708 196.634 335.786 196.438 335.783 196.235C335.779 196.032 335.696 195.839 335.55 195.698C335.404 195.556 335.208 195.479 335.005 195.482C334.802 195.485 334.608 195.569 334.467 195.715C333.537 196.483 332.561 197.194 331.546 197.846C330.618 197.055 328.487 195.337 327.456 194.409C330.953 193.089 334.128 191.038 336.77 188.394C340.206 189.852 343.289 192.032 345.809 194.787C347.071 198.531 347.274 202.551 346.393 206.403C343.231 216.164 317.661 225.821 291.404 212.108C282.159 207.469 278.276 203.654 279.925 192.106C280.048 190.065 280.833 188.119 282.159 186.562C283.486 185.006 285.284 183.924 287.28 183.48C289.544 186.948 292.64 189.795 296.285 191.762ZM324.26 221.147C329.862 220.46 343.162 217.916 347.871 209.221C375.193 224.343 403.684 258.161 404.337 288.989C404.572 295.765 403.218 302.501 400.384 308.66C397.549 314.819 393.312 320.229 388.012 324.457C383.151 325.351 378.493 327.121 374.265 329.68C377.289 282.975 377.393 285.793 377.049 285.449C376.705 285.105 371.481 285.071 362.958 284.865C364.024 283.525 366.876 279.744 367.529 278.988C367.689 278.819 367.775 278.594 367.768 278.362C367.762 278.13 367.663 277.91 367.495 277.751C367.326 277.591 367.101 277.505 366.869 277.512C366.637 277.518 366.417 277.616 366.257 277.785C364.087 280.194 361.793 282.488 359.384 284.659H358.662C359.539 274.235 359.768 263.767 359.349 253.315C359.349 252.49 357.906 252.49 357.975 253.315C358.318 258.23 356.016 280.26 355.741 284.487C330.137 283.971 287.452 283.525 261.676 283.284C258.517 272.598 257.181 261.455 257.724 250.325C257.724 249.157 256.074 249.157 255.971 250.325C254.86 261.396 255.78 272.578 258.686 283.318H257.964C254.521 279.876 251.252 276.262 248.17 272.492C248.045 272.32 247.86 272.201 247.652 272.157C247.444 272.113 247.227 272.148 247.043 272.255C246.859 272.362 246.721 272.533 246.656 272.736C246.592 272.938 246.604 273.158 246.692 273.352C247.07 274.073 251.194 280.225 253.909 283.456H240.574C239.578 283.456 239.887 283.456 239.818 284.246C239.475 288.13 240.712 309.575 241.674 324.835C239.602 323.542 237.443 322.394 235.213 321.398C217.514 304.008 208.097 290.467 217.72 267.234C229.208 239.253 250.852 216.651 278.31 203.963C282.159 212.177 301.715 223.828 324.26 221.147ZM242.018 285.896C245.936 285.896 366.498 286.961 374.918 287.717C373.303 301.258 370.313 341.262 369.282 354.7H361.755C357.494 358.378 325.875 384.635 323.607 386.559C322.816 387.178 324.26 387.693 327.662 390.752C329.803 392.323 331.597 394.318 332.933 396.612C334.269 398.906 335.119 401.45 335.429 404.087C335.438 404.208 335.493 404.322 335.582 404.405C335.671 404.488 335.789 404.534 335.911 404.534C348.146 405.049 358.49 415.944 350.001 422.68C342.2 428.866 330.137 422.68 324.157 416.975C329.553 409.929 332.714 403.777 326.666 397.419C325.944 396.663 318.177 390.34 308.313 382.298C270.955 351.813 273.945 353.532 273.464 353.532C271.54 353.532 251.125 352.123 247.448 351.916C244.733 329.921 242.739 297.787 242.018 285.896ZM277.967 421.443C272.914 421.821 264.426 422.474 260.783 417.353C258.411 413.916 261.951 409.895 265.766 408.795C274.117 411.82 287.246 416.047 291.507 417.387C287.267 419.525 282.683 420.897 277.967 421.443ZM260.095 420.755C263.532 424.192 269.375 424.604 274.049 424.536C281.675 424.498 289.156 422.447 295.735 418.59C303.261 420.79 310.719 422.68 318.486 424.329C318.579 424.361 318.68 424.362 318.773 424.331C318.866 424.3 318.947 424.239 319.002 424.158C320.308 422.542 321.579 420.721 322.748 419.174C330.652 426.529 343.85 431.375 351.96 425.12C357.94 420.48 357.012 412.541 351.032 407.627C379.489 399.275 402.137 387.281 414.853 374.668C426.721 388.276 435.505 404.291 440.601 421.613C445.696 438.935 446.984 457.155 444.375 475.022C437.115 479.772 429.6 484.12 421.864 488.047C421.678 488.143 421.529 488.3 421.443 488.492C421.357 488.683 421.338 488.898 421.39 489.102C421.442 489.305 421.561 489.485 421.729 489.612C421.896 489.739 422.101 489.805 422.311 489.8C422.758 489.8 436.505 483.167 443.757 478.871C437.822 509.928 421.155 537.908 396.673 557.917C391.14 556.749 386.363 555.649 384.094 554.961C382.857 554.549 382.307 556.405 383.51 556.852C385.606 557.608 389.524 558.673 394.198 559.876C372.03 576.768 344.954 585.962 317.083 586.062C289.213 586.161 262.072 577.16 239.784 560.426C243.903 559.565 247.957 558.417 251.916 556.989C253.428 556.336 252.5 554.102 250.953 554.446L236.656 557.883C210.463 536.859 192.911 506.941 187.339 473.819L188.026 474.128C189.607 474.816 190.844 472.651 189.366 471.791L186.823 470.314C182.279 438.945 189.929 407.029 208.2 381.129C225.315 392.079 243.655 400.984 262.845 407.661C257.415 410.41 255.593 416.322 260.095 420.755ZM342.097 165.712C341.375 172.585 340.344 179.459 336.082 184.751C333.745 187.673 328.762 192.003 324.672 192.106C321.957 192.106 320.995 190.525 319.242 188.669C316.94 185.989 315.805 184.58 314.568 184.786C311.819 185.129 312.3 190.319 307.901 192.897C306.561 193.653 301.886 192.312 298.312 190.594C294.122 188.516 290.669 185.206 288.414 181.109C286.16 177.011 285.212 172.322 285.699 167.671C285.699 166.846 284.496 166.33 284.015 166.571C283.268 166.829 282.468 166.892 281.69 166.755C280.911 166.617 280.181 166.282 279.568 165.783C278.956 165.284 278.48 164.637 278.188 163.902C277.896 163.168 277.796 162.371 277.898 161.588C279.204 154.714 286.902 156.432 288.93 160.419C288.998 160.52 289.099 160.593 289.215 160.627C289.332 160.66 289.456 160.652 289.567 160.602C289.678 160.553 289.768 160.466 289.821 160.357C289.874 160.248 289.887 160.124 289.858 160.007C288.473 156.393 288.301 152.428 289.367 148.708C290.433 144.989 292.68 141.717 295.769 139.386C300.678 142.795 306.512 144.621 312.489 144.621C318.466 144.621 324.3 142.795 329.209 139.386C335.842 144.541 336.082 155.264 335.601 159.01C335.596 159.101 335.612 159.191 335.648 159.275C335.683 159.358 335.738 159.432 335.808 159.491C336.392 159.938 337.354 158.769 337.835 158.219C338.453 157.26 339.34 156.504 340.385 156.045C341.431 155.587 342.588 155.447 343.712 155.642C344.835 155.806 345.859 156.376 346.591 157.245C347.322 158.113 347.709 159.219 347.679 160.354C347.65 161.489 347.205 162.573 346.43 163.402C345.654 164.231 344.602 164.747 343.472 164.852C343.231 164.646 342.166 164.99 342.097 165.712Z" fill="url(#paint2_linear_181_1015)"/>
<path d="M292.848 542.658C293.191 543.483 292.848 543.105 292.848 542.658C283.139 546.585 273.098 549.634 262.845 551.765C261.607 552.006 262.02 553.827 263.257 553.69C273.873 552.495 284.219 549.558 293.879 544.995C295.288 544.204 294.36 542.108 292.848 542.658ZM340.963 528.052C341.788 528.052 369.625 517.123 372.341 515.37C373.681 514.476 372.753 512.174 371.172 512.758C368.388 513.789 346.255 524.237 340.722 526.196C340.52 526.273 340.35 526.416 340.239 526.601C340.128 526.787 340.083 527.004 340.111 527.218C340.139 527.433 340.238 527.631 340.392 527.783C340.547 527.934 340.748 528.028 340.963 528.052ZM383.51 509.837C384.404 509.837 407.568 499.286 409.733 497.636C410.798 496.811 410.076 494.852 408.667 495.402C406.571 496.193 387.565 505.712 383.201 507.534C382.957 507.636 382.753 507.816 382.621 508.045C382.49 508.275 382.437 508.542 382.473 508.804C382.508 509.066 382.629 509.309 382.816 509.496C383.004 509.683 383.248 509.803 383.51 509.837ZM450.94 440.757C452.864 441.995 460.013 447.631 461.937 448.868C462.232 449.038 462.578 449.097 462.911 449.032C463.245 448.967 463.544 448.784 463.754 448.516C463.963 448.248 464.069 447.914 464.051 447.574C464.033 447.234 463.892 446.913 463.656 446.669C461.834 445.122 453.964 440.207 452.005 439.039C451.777 438.898 451.503 438.853 451.242 438.914C450.981 438.975 450.754 439.138 450.613 439.365C450.472 439.593 450.427 439.868 450.488 440.129C450.549 440.39 450.712 440.616 450.94 440.757ZM494.071 469.283C493.006 468.423 491.562 469.97 492.662 470.863C495.102 472.891 504.794 481.483 507.475 483.305C507.759 483.445 508.083 483.483 508.393 483.412C508.702 483.341 508.977 483.165 509.171 482.914C509.365 482.663 509.467 482.353 509.458 482.035C509.45 481.718 509.332 481.414 509.124 481.174C506.925 478.906 496.924 471.551 494.071 469.283ZM516.239 489.01C516.033 488.809 515.757 488.698 515.47 488.702C515.183 488.705 514.91 488.822 514.709 489.027C514.509 489.232 514.398 489.508 514.401 489.795C514.404 490.082 514.521 490.356 514.726 490.556C519.042 494.922 522.921 499.699 526.308 504.819C527.408 506.365 529.917 504.819 528.852 503.238C525.263 497.983 521.025 493.203 516.239 489.01ZM468.124 568.262C463.518 568.262 443.688 566.956 438.808 565.959C438.585 565.905 438.349 565.941 438.152 566.06C437.956 566.179 437.814 566.372 437.76 566.595C437.705 566.818 437.741 567.054 437.86 567.251C437.98 567.447 438.172 567.589 438.395 567.643C448.211 569.489 458.146 570.637 468.124 571.08C468.497 571.08 468.856 570.932 469.12 570.667C469.384 570.403 469.533 570.045 469.533 569.671C469.533 569.297 469.384 568.939 469.12 568.675C468.856 568.41 468.497 568.262 468.124 568.262ZM345.293 543.551C344.09 542.967 343.094 544.754 344.331 545.373C352.988 549.746 362.258 552.782 371.825 554.377C373.681 554.721 374.403 551.868 372.512 551.559C363.11 550.172 353.949 547.476 345.293 543.551ZM305.014 541.18C309.31 540.252 318.074 537.743 319.448 537.537C320.754 538.053 329.14 541.214 333.608 542.28C333.943 542.354 334.293 542.297 334.587 542.121C334.881 541.945 335.097 541.663 335.189 541.333C335.282 541.003 335.244 540.65 335.084 540.346C334.924 540.043 334.654 539.812 334.33 539.702C330.893 538.465 327.456 537.434 323.641 536.265C326.413 535.344 329.102 534.195 331.683 532.829C331.871 532.628 331.996 532.377 332.043 532.106C332.089 531.835 332.056 531.557 331.946 531.305C331.837 531.052 331.656 530.838 331.426 530.687C331.196 530.537 330.927 530.457 330.652 530.457C326.803 531.763 323.023 533.413 319.277 534.856C315.015 533.344 311.097 531.798 307.351 530.148C306.114 529.598 305.117 531.42 306.389 532.004C309.516 533.482 312.644 534.891 315.737 536.162C312.083 537.431 308.367 538.509 304.602 539.393C304.444 539.508 304.323 539.667 304.254 539.85C304.186 540.033 304.173 540.232 304.217 540.423C304.261 540.613 304.36 540.787 304.502 540.921C304.643 541.056 304.822 541.146 305.014 541.18ZM151.184 445.363C147.747 442.682 134.859 431.615 132.006 428.591C131.079 427.594 129.532 429.072 130.46 430.069C136.069 436.667 142.476 442.543 149.534 447.562C150.909 448.49 152.49 446.394 151.184 445.363ZM110.355 607.991C108.21 589.018 104.345 570.279 98.8071 552.006C101.942 556.747 106.776 560.105 112.314 561.388C112.551 561.489 112.818 561.491 113.056 561.394C113.295 561.297 113.485 561.11 113.585 560.873C113.686 560.636 113.688 560.369 113.591 560.13C113.494 559.892 113.307 559.701 113.07 559.601C108.671 556.955 101.9 554.274 99.8038 547.847C100.951 545.754 101.233 543.295 100.591 540.996C99.9488 538.697 98.4328 536.74 96.367 535.544C97.6035 528.244 100.216 521.247 104.065 514.923C104.512 514.064 103.344 513.17 102.691 513.926C97.7863 520.042 94.7866 527.463 94.0644 535.269C93.1696 535.333 92.2894 535.53 91.4524 535.853C82.3469 512.318 69.4103 490.451 53.1667 471.138C53.792 470.072 54.035 468.825 53.8554 467.602C53.6759 466.379 53.0846 465.254 52.1792 464.413C51.2738 463.572 50.1085 463.065 48.8759 462.975C47.6432 462.886 46.4169 463.219 45.3996 463.921C44.2387 464.711 43.3948 465.886 43.0174 467.239C42.64 468.591 42.7534 470.033 43.3375 471.31C43.7267 471.991 44.2499 472.586 44.8754 473.06C45.5009 473.533 46.2158 473.875 46.9769 474.064C47.7381 474.254 48.5297 474.287 49.3041 474.162C50.0785 474.037 50.8196 473.757 51.4827 473.338C67.4088 492.433 80.1721 513.956 89.2872 537.09C83.6853 542.039 88.5655 551.319 95.6109 550.562C101.42 569.475 105.47 588.884 107.708 608.541C106.677 609.088 105.878 609.988 105.458 611.076C105.037 612.165 105.024 613.369 105.42 614.467C105.816 615.564 106.595 616.482 107.613 617.052C108.632 617.621 109.822 617.804 110.964 617.567C112.107 617.329 113.125 616.688 113.833 615.759C114.54 614.831 114.889 613.679 114.814 612.514C114.74 611.35 114.248 610.251 113.429 609.42C112.61 608.589 111.518 608.082 110.355 607.991ZM51.3108 468.595C51.4315 469.048 51.4465 469.523 51.3545 469.983C51.2626 470.442 51.0662 470.875 50.7805 471.246C50.4949 471.618 50.1276 471.919 49.7071 472.126C49.2865 472.334 48.824 472.441 48.3552 472.441C47.8864 472.441 47.4238 472.334 47.0033 472.126C46.5828 471.919 46.2155 471.618 45.9299 471.246C45.6442 470.875 45.4478 470.442 45.3559 469.983C45.2639 469.523 45.2789 469.048 45.3996 468.595C45.2789 468.142 45.2639 467.668 45.3559 467.208C45.4478 466.748 45.6442 466.316 45.9299 465.944C46.2155 465.572 46.5828 465.271 47.0033 465.064C47.4238 464.857 47.8864 464.749 48.3552 464.749C48.824 464.749 49.2865 464.857 49.7071 465.064C50.1276 465.271 50.4949 465.572 50.7805 465.944C51.0662 466.316 51.2626 466.748 51.3545 467.208C51.4465 467.668 51.4315 468.142 51.3108 468.595ZM113.173 612.631C113.173 616.067 107.502 616.067 107.502 612.631C107.502 609.194 113.035 609.503 113.035 612.94L113.173 612.631ZM98.1198 545.27C96.2639 551.009 89.356 546.988 89.4591 542.314C89.4591 538.19 95.1985 535.441 97.3637 539.393C97.9184 540.282 98.2626 541.286 98.3698 542.328C98.477 543.371 98.3445 544.424 97.9823 545.407L98.1198 545.27ZM597.965 407.042C597.948 406.05 597.655 405.081 597.12 404.245C596.584 403.409 595.827 402.738 594.933 402.306C594.038 401.875 593.042 401.701 592.054 401.803C591.066 401.905 590.126 402.279 589.339 402.884C569.999 391.561 553.366 376.148 540.605 357.725C541.538 356.654 542.179 355.361 542.468 353.971C542.757 352.581 542.684 351.139 542.255 349.786C541.927 348.735 541.331 347.788 540.527 347.037C539.723 346.285 538.738 345.755 537.667 345.499C536.597 345.243 535.478 345.269 534.421 345.574C533.364 345.88 532.404 346.455 531.635 347.243C515.096 324.869 503.275 299.367 496.889 272.286C497.534 271.556 497.929 270.638 498.015 269.667C498.102 268.697 497.876 267.724 497.371 266.891C496.991 266.03 496.341 265.317 495.52 264.858C494.699 264.4 493.751 264.221 492.819 264.349C491.887 264.477 491.023 264.905 490.356 265.568C489.689 266.231 489.256 267.094 489.122 268.025C488.904 268.807 488.902 269.634 489.115 270.417C489.328 271.201 489.75 271.912 490.335 272.476C490.919 273.04 491.646 273.435 492.437 273.619C493.228 273.803 494.054 273.77 494.827 273.524C501.16 300.917 513.172 326.676 530.089 349.133C529.727 349.717 529.461 350.355 529.298 351.023C524.934 348.927 503.248 342.053 500.979 342.672C500.017 342.947 500.464 344.115 500.979 344.252C510.469 346.875 519.789 350.077 528.886 353.841C529.078 354.893 529.508 355.888 530.141 356.75C530.775 357.611 531.597 358.317 532.544 358.814C533.491 359.311 534.539 359.586 535.609 359.617C536.678 359.649 537.74 359.436 538.715 358.996C554.387 381.267 570.437 396.285 587.758 404.912C587.387 405.746 587.23 406.659 587.3 407.569C587.37 408.479 587.666 409.357 588.16 410.124C588.655 410.892 589.332 411.524 590.132 411.964C590.932 412.404 591.829 412.638 592.741 412.644C593.469 412.679 594.197 412.555 594.872 412.281C595.547 412.006 596.155 411.588 596.652 411.055C597.149 410.521 597.524 409.886 597.751 409.193C597.978 408.5 598.051 407.766 597.965 407.042ZM590.336 408.761C590.04 408.325 589.864 407.82 589.824 407.295C589.784 406.77 589.881 406.244 590.107 405.768C590.333 405.293 590.679 404.884 591.11 404.583C591.542 404.283 592.045 404.099 592.569 404.052C593.393 404.079 594.175 404.423 594.751 405.012C595.328 405.601 595.654 406.39 595.663 407.214C595.663 407.84 595.461 408.449 595.085 408.95C594.71 409.451 594.182 409.816 593.581 409.991C592.979 410.165 592.338 410.139 591.753 409.918C591.167 409.696 590.67 409.29 590.336 408.761ZM537.684 357.003C536.622 357.346 535.476 357.322 534.429 356.935C533.382 356.549 532.495 355.822 531.91 354.872C531.589 354.108 531.456 353.277 531.524 352.451C531.592 351.625 531.858 350.827 532.3 350.125C532.742 349.424 533.346 348.839 534.062 348.421C534.778 348.003 535.584 347.764 536.412 347.724C540.812 347.724 541.568 355.388 537.684 357.003ZM495.79 269.262C495.829 269.586 495.8 269.914 495.703 270.225C495.607 270.537 495.445 270.824 495.229 271.068C495.013 271.313 494.747 271.508 494.45 271.642C494.153 271.776 493.83 271.845 493.504 271.845C493.178 271.845 492.856 271.776 492.558 271.642C492.261 271.508 491.996 271.313 491.78 271.068C491.564 270.824 491.402 270.537 491.305 270.225C491.208 269.914 491.179 269.586 491.219 269.262C491.179 268.938 491.208 268.61 491.305 268.298C491.402 267.987 491.564 267.7 491.78 267.455C491.996 267.211 492.261 267.016 492.558 266.882C492.856 266.748 493.178 266.679 493.504 266.679C493.83 266.679 494.153 266.748 494.45 266.882C494.747 267.016 495.013 267.211 495.229 267.455C495.445 267.7 495.607 267.987 495.703 268.298C495.8 268.61 495.829 268.938 495.79 269.262ZM550.606 548.913C550.701 548.672 550.708 548.406 550.627 548.161C550.545 547.916 550.38 547.708 550.16 547.572C548.441 546.507 545.623 548.294 545.142 550.322C546.31 550.425 549.885 550.287 550.606 548.913Z" fill="url(#paint3_linear_181_1015)"/>
<path d="M542.427 526.196C540.193 521.468 537.68 516.878 534.9 512.449C534.747 512.223 534.513 512.065 534.247 512.007C533.981 511.949 533.702 511.995 533.468 512.136C533.235 512.277 533.064 512.502 532.992 512.765C532.92 513.027 532.951 513.308 533.079 513.549C535.396 517.621 537.406 521.86 539.093 526.23C535.259 526.648 531.613 528.113 528.556 530.466C525.5 532.818 523.15 535.968 521.765 539.568C520.381 543.168 520.014 547.08 520.707 550.875C521.399 554.669 523.123 558.2 525.69 561.079C513.797 565.707 501.22 568.332 488.47 568.846C488.241 568.889 488.035 569.011 487.887 569.19C487.738 569.369 487.657 569.594 487.657 569.826C487.657 570.058 487.738 570.283 487.887 570.462C488.035 570.641 488.241 570.763 488.47 570.805C502.065 571.094 515.575 568.591 528.164 563.451C530.74 565.494 533.76 566.902 536.981 567.56C540.202 568.218 543.532 568.109 546.703 567.24C549.873 566.372 552.795 564.768 555.23 562.56C557.666 560.352 559.547 557.602 560.721 554.531C561.896 551.461 562.33 548.157 561.99 544.887C561.65 541.617 560.544 538.474 558.762 535.711C556.981 532.948 554.573 530.644 551.735 528.985C548.897 527.326 545.708 526.359 542.427 526.162V526.196ZM538.062 557.952C537.719 555.649 537.581 553.312 537.169 551.078H532.117C531.807 553.106 531.807 555.134 531.498 557.161C531.48 557.306 531.434 557.445 531.362 557.572C531.29 557.698 531.194 557.809 531.079 557.899C530.964 557.988 530.832 558.054 530.692 558.093C530.552 558.131 530.405 558.142 530.261 558.124C530.116 558.106 529.977 558.059 529.85 557.987C529.724 557.915 529.613 557.819 529.523 557.704C529.434 557.59 529.368 557.458 529.33 557.318C529.291 557.178 529.28 557.031 529.299 556.887C529.299 554.618 531.189 540.184 531.567 538.156C532.048 535.304 533.56 535.063 534.419 535.166C536.206 535.372 536.688 537.228 537.066 538.603C538.062 542.28 540.502 553.484 541.121 557.196C541.396 559.052 538.372 559.808 538.062 557.952ZM553.493 555.306C547.96 559.155 540.984 554.55 543.183 549.223C544.592 545.786 550.057 543.449 552.359 547.023C552.636 547.601 552.772 548.236 552.757 548.876C552.741 549.517 552.573 550.144 552.268 550.708C551.963 551.271 551.529 551.754 551.001 552.117C550.473 552.48 549.867 552.713 549.232 552.797C548.091 552.947 546.936 552.947 545.795 552.797C546.23 553.277 546.741 553.684 547.307 554C550.744 555.443 553.047 552.865 553.734 554.309C553.788 554.454 553.793 554.613 553.75 554.761C553.707 554.91 553.617 555.04 553.493 555.134V555.306Z" fill="url(#paint4_linear_181_1015)"/>
<path d="M533.904 538.809C533.388 541.421 532.804 546.095 532.529 548.26H536.619C536.241 546.507 535.244 541.592 534.557 538.912C534.454 538.465 533.972 538.362 533.904 538.809ZM236.141 487.36C234.079 486.123 229.542 485.985 229.267 488.7C229.061 490.213 229.267 496.261 229.267 497.877C230.835 497.831 232.377 497.463 233.796 496.794C235.216 496.126 236.482 495.173 237.516 493.993C237.902 493.481 238.175 492.893 238.316 492.267C238.457 491.641 238.463 490.993 238.332 490.365C238.202 489.737 237.939 489.144 237.562 488.626C237.184 488.107 236.699 487.676 236.141 487.36Z" fill="url(#paint5_linear_181_1015)"/>
<path d="M294.876 524.718C285.376 521.239 276.082 517.223 267.038 512.689C268.843 509 269.904 504.991 270.16 500.891C270.416 496.792 269.862 492.682 268.529 488.796C267.197 484.911 265.112 481.326 262.394 478.246C259.677 475.166 256.379 472.652 252.689 470.847C249 469.041 244.991 467.98 240.891 467.725C236.791 467.469 232.682 468.023 228.796 469.355C224.911 470.687 221.326 472.772 218.246 475.49C215.166 478.208 212.652 481.506 210.846 485.195C206.688 482.982 202.65 480.55 198.749 477.909C197.683 477.222 196.687 478.837 197.683 479.559C202.323 482.996 206.207 485.401 209.815 487.601C197.477 523.618 245.42 546.679 265.835 514.786C274.794 519.873 284.385 523.756 294.36 526.333C294.562 526.363 294.767 526.32 294.94 526.212C295.113 526.104 295.241 525.939 295.303 525.745C295.365 525.551 295.356 525.341 295.278 525.153C295.2 524.965 295.057 524.811 294.876 524.718ZM239.887 497.224C237.103 499.892 233.431 501.434 229.577 501.554V511.177C229.577 511.569 229.421 511.945 229.144 512.222C228.867 512.499 228.491 512.655 228.099 512.655C227.707 512.655 227.331 512.499 227.054 512.222C226.777 511.945 226.621 511.569 226.621 511.177C226.621 509.528 226.037 495.884 226.003 494.784C226.003 491.347 224.697 485.47 229.439 483.58C238.169 479.903 246.417 489.56 239.715 497.19L239.887 497.224ZM255.696 507.534C255.215 513.033 247.826 515.405 243.427 512.14C243.114 511.892 242.903 511.537 242.836 511.144C242.768 510.75 242.849 510.345 243.063 510.008C243.276 509.67 243.608 509.424 243.992 509.316C244.377 509.208 244.788 509.247 245.145 509.425C246.14 510.091 247.336 510.39 248.528 510.271C249.719 510.152 250.832 509.622 251.675 508.772C252.706 507.706 252.294 505.575 250.61 505.816C249.304 506.189 247.943 506.328 246.589 506.228C245.903 506.069 245.266 505.742 244.738 505.276C244.209 504.81 243.804 504.221 243.558 503.56C243.313 502.9 243.236 502.188 243.333 501.491C243.43 500.793 243.698 500.13 244.114 499.561C244.694 498.741 245.46 498.07 246.348 497.601C247.236 497.132 248.222 496.879 249.226 496.862C250.23 496.845 251.224 497.065 252.127 497.504C253.031 497.943 253.818 498.589 254.425 499.389C255.456 500.729 253.325 502.345 252.294 501.039C251.813 500.481 251.178 500.078 250.468 499.882C249.758 499.686 249.006 499.706 248.307 499.939C245.317 501.039 247.208 503.994 249.201 503.376C249.648 503.238 255.971 502.242 255.524 507.397L255.696 507.534ZM533.972 393.227C532.859 395.769 531.585 398.237 530.158 400.616C527.465 396.874 523.978 393.773 519.947 391.536C515.916 389.299 511.44 387.981 506.84 387.676C502.24 387.371 497.63 388.087 493.339 389.773C489.048 391.458 485.182 394.071 482.019 397.425C478.856 400.779 476.474 404.791 475.042 409.173C473.611 413.555 473.166 418.2 473.74 422.774C474.314 427.349 475.892 431.74 478.361 435.633C480.83 439.526 484.129 442.825 488.023 445.294C484.586 448.353 477.472 453.783 476.028 454.917L473.485 453.749C472.351 453.233 471.423 454.917 472.592 455.467C473.121 455.714 473.638 455.99 474.138 456.292C469.811 459.43 465.326 462.344 460.7 465.021C460.459 465.158 460.281 465.385 460.207 465.653C460.133 465.92 460.168 466.206 460.305 466.448C460.442 466.689 460.669 466.866 460.936 466.941C461.204 467.015 461.49 466.98 461.731 466.843C467.402 463.681 472.282 460.691 476.578 457.77C479.715 459.951 482.638 462.425 485.308 465.159C485.577 465.37 485.914 465.476 486.256 465.457C486.598 465.438 486.921 465.295 487.165 465.055C487.409 464.815 487.558 464.495 487.583 464.153C487.608 463.812 487.508 463.473 487.301 463.2C484.621 460.673 481.736 458.374 478.675 456.326C480.771 454.814 487.473 449.831 490.841 446.875C496.851 449.833 503.651 450.785 510.242 449.592C516.833 448.399 522.868 445.124 527.459 440.247C532.051 435.371 534.958 429.15 535.753 422.499C536.548 415.849 535.189 409.118 531.876 403.297C533.645 400.344 535.118 397.225 536.275 393.983C536.859 392.505 534.557 391.784 533.972 393.227ZM505.069 431.513C504.38 429.19 503.84 426.825 503.454 424.433L496.202 425.155C495.79 427.32 495.377 429.485 495.034 431.65C494.69 433.815 491.872 432.922 492.147 431.066C492.765 426.495 496.443 407.008 497.165 405.153C499.192 401.166 502.251 403.915 504.038 408.418C505.772 415.871 507.125 423.407 508.094 430.997C508.162 431.398 508.068 431.81 507.833 432.142C507.598 432.474 507.24 432.699 506.839 432.767C506.438 432.835 506.026 432.742 505.694 432.506C505.362 432.271 505.138 431.914 505.069 431.513ZM510.946 409.208C511.12 408.802 511.378 408.438 511.703 408.139C512.028 407.84 512.412 407.614 512.831 407.474C513.25 407.335 513.693 407.285 514.133 407.329C514.572 407.373 514.997 407.51 515.379 407.73C515.721 407.959 516.009 408.259 516.223 408.609C516.438 408.959 516.575 409.352 516.623 409.76C516.672 410.168 516.633 410.581 516.507 410.973C516.381 411.364 516.172 411.723 515.895 412.026C515.464 412.556 514.859 412.916 514.187 413.042C513.515 413.168 512.821 413.051 512.227 412.713C511.633 412.375 511.179 411.837 510.944 411.195C510.71 410.553 510.71 409.849 510.946 409.208ZM516.926 431.169C516.92 431.563 516.774 431.942 516.513 432.238C516.251 432.533 515.893 432.725 515.503 432.779C515.112 432.833 514.715 432.746 514.384 432.532C514.052 432.319 513.808 431.994 513.695 431.616C513.42 430.86 512.905 420.274 512.905 419.037C512.905 418.682 513.046 418.341 513.298 418.089C513.549 417.838 513.89 417.697 514.245 417.697C514.601 417.697 514.942 417.838 515.193 418.089C515.444 418.341 515.586 418.682 515.586 419.037C515.689 420.996 516.96 430.585 516.926 431.169Z" fill="url(#paint6_linear_181_1015)"/>
<path d="M496.89 421.752L502.87 421.099C502.271 416.908 501.258 412.786 499.845 408.795C499.055 412.232 497.611 418.35 496.89 421.752ZM165.687 569.774C162.8 571.492 165.172 576.166 169.124 574.414C169.124 572.145 168.918 570.461 168.849 569.671C168.352 569.434 167.806 569.319 167.255 569.337C166.705 569.355 166.167 569.505 165.687 569.774Z" fill="url(#paint7_linear_181_1015)"/>
<path d="M198.886 565.409C193.198 566.3 187.458 566.828 181.703 566.99C180.156 539.943 141.458 539.908 139.877 566.99C133.906 566.414 128.03 565.098 122.384 563.072C122.278 563.018 122.162 562.985 122.043 562.976C121.925 562.967 121.805 562.981 121.692 563.017C121.579 563.054 121.474 563.113 121.383 563.19C121.292 563.267 121.218 563.362 121.164 563.468C121.109 563.574 121.077 563.689 121.067 563.808C121.058 563.927 121.072 564.046 121.109 564.16C121.145 564.273 121.204 564.378 121.281 564.468C121.358 564.559 121.453 564.634 121.559 564.688C127.286 567.72 133.56 569.578 140.014 570.152C140.665 575.198 143.131 579.834 146.951 583.193C150.772 586.553 155.685 588.406 160.773 588.406C165.86 588.406 170.773 586.553 174.594 583.193C178.414 579.834 180.88 575.198 181.531 570.152C187.514 569.542 193.458 568.59 199.333 567.3C199.535 567.2 199.698 567.034 199.794 566.83C199.89 566.627 199.914 566.396 199.862 566.177C199.81 565.957 199.685 565.762 199.508 565.623C199.331 565.483 199.112 565.408 198.886 565.409ZM157.645 576.373C157.598 576.605 157.503 576.825 157.366 577.018C157.228 577.211 157.051 577.373 156.847 577.493C156.643 577.613 156.415 577.688 156.18 577.714C155.944 577.741 155.706 577.717 155.48 577.644C154.449 577.335 154.621 576.751 152.971 574.414C152.456 575.273 151.94 576.167 151.459 577.06C151.27 577.368 150.971 577.591 150.623 577.685C150.274 577.778 149.903 577.735 149.586 577.563C149.269 577.391 149.03 577.104 148.918 576.761C148.806 576.418 148.83 576.046 148.984 575.72C149.637 574.482 150.29 573.211 151.012 571.974C150.164 571.09 149.219 570.306 148.194 569.637C147.858 569.4 147.624 569.045 147.541 568.643C147.458 568.241 147.531 567.822 147.745 567.471C147.96 567.121 148.3 566.866 148.696 566.757C149.092 566.649 149.515 566.695 149.878 566.887C154.174 569.534 151.528 569.843 154.793 565.787C156.133 564.138 158.676 566.166 157.576 567.85C156.82 569.018 155.858 570.221 155.033 571.286C156.717 573.451 157.817 575.135 157.611 576.373H157.645ZM172.286 576.785C171.554 577.445 170.689 577.94 169.75 578.236C168.81 578.533 167.818 578.624 166.84 578.503C165.862 578.383 164.922 578.053 164.083 577.537C163.243 577.022 162.525 576.331 161.975 575.514C161.276 574.481 160.905 573.261 160.911 572.013C160.917 570.766 161.3 569.549 162.01 568.523C162.72 567.497 163.723 566.71 164.889 566.265C166.054 565.82 167.327 565.737 168.54 566.028C168.242 562.313 168.139 558.585 168.23 554.858C168.236 554.461 168.387 554.079 168.657 553.786C168.926 553.494 169.294 553.31 169.69 553.272C170.086 553.234 170.482 553.343 170.802 553.579C171.123 553.814 171.345 554.16 171.427 554.549C172.148 559.051 172.698 572.249 172.767 573.761C172.836 574.551 173.179 575.857 172.251 576.785H172.286ZM108.052 373.603C108.671 373.603 108.843 373.603 108.877 373.396C108.877 372.812 107.709 365.079 107.571 364.152C97.8107 365.492 99.048 374.496 108.052 373.603Z" fill="url(#paint8_linear_181_1015)"/>
<path d="M132.35 341.022C128.275 341.581 124.236 342.372 120.253 343.393C117.049 340.282 113.143 337.988 108.865 336.705C104.587 335.423 100.063 335.19 95.6764 336.026C91.2895 336.862 87.1684 338.743 83.662 341.508C80.1556 344.274 77.3671 347.844 75.5324 351.916C73.6976 355.987 72.8707 360.441 73.1215 364.9C73.3724 369.359 74.6936 373.692 76.9735 377.532C79.2533 381.372 82.4246 384.606 86.2191 386.961C90.0136 389.317 94.3196 390.723 98.7726 391.062C102.65 401.979 109.407 411.645 118.328 419.037C118.409 419.116 118.505 419.178 118.61 419.22C118.716 419.262 118.828 419.283 118.942 419.281C119.055 419.279 119.167 419.256 119.271 419.211C119.375 419.166 119.469 419.101 119.548 419.02C119.627 418.939 119.689 418.843 119.731 418.737C119.773 418.632 119.794 418.519 119.792 418.406C119.79 418.293 119.767 418.181 119.722 418.077C119.677 417.973 119.612 417.879 119.531 417.8C112.091 410.013 106.066 400.988 101.728 391.13C106.908 390.935 111.931 389.301 116.235 386.411C120.538 383.522 123.951 379.49 126.092 374.77C128.233 370.049 129.017 364.825 128.356 359.684C127.695 354.543 125.615 349.687 122.349 345.662C125.992 344.699 129.223 343.84 132.659 343.187C134.309 342.912 133.725 340.747 132.35 341.022ZM89.459 375.802V350.233C89.5119 349.892 89.6848 349.582 89.9464 349.358C90.2079 349.134 90.5409 349.011 90.8852 349.011C91.2296 349.011 91.5626 349.134 91.8241 349.358C92.0857 349.582 92.2585 349.892 92.3115 350.233C92.3115 355.319 92.8957 372.365 92.9988 375.802C92.8801 376.179 92.6445 376.507 92.3263 376.741C92.008 376.974 91.6236 377.1 91.2289 377.1C90.8342 377.1 90.4498 376.974 90.1315 376.741C89.8133 376.507 89.5777 376.179 89.459 375.802ZM110.492 376.146C103.618 379.823 94.4423 373.259 98.7726 365.595C99.7222 364.231 100.994 363.122 102.474 362.366C103.955 361.611 105.6 361.232 107.261 361.265C106.687 357.52 106.343 353.744 106.23 349.958C106.249 349.585 106.398 349.231 106.652 348.958C106.905 348.685 107.248 348.511 107.618 348.465C107.988 348.42 108.362 348.507 108.674 348.711C108.986 348.915 109.216 349.223 109.324 349.58C109.908 352.054 111.557 368.516 111.729 370.681C111.798 372.365 112.554 374.874 110.492 375.974V376.146Z" fill="url(#paint9_linear_181_1015)"/>
<defs>
<linearGradient id="paint0_linear_181_1015" x1="319.003" y1="94.7779" x2="319.003" y2="649.891" gradientUnits="userSpaceOnUse">
<stop stop-color="#A72984"/>
<stop offset="0.485" stop-color="#AF2290"/>
<stop offset="1" stop-color="#D41744"/>
</linearGradient>
<linearGradient id="paint1_linear_181_1015" x1="313.354" y1="11" x2="313.354" y2="665" gradientUnits="userSpaceOnUse">
<stop stop-color="#CC1578"/>
<stop offset="1" stop-color="#CA174D"/>
</linearGradient>
<linearGradient id="paint2_linear_181_1015" x1="309.391" y1="120.047" x2="309.391" y2="589.373" gradientUnits="userSpaceOnUse">
<stop stop-color="#BB1FAB"/>
<stop offset="1" stop-color="#B61C2F"/>
</linearGradient>
<linearGradient id="paint3_linear_181_1015" x1="320.399" y1="264.309" x2="320.399" y2="617.668" gradientUnits="userSpaceOnUse">
<stop stop-color="#8F1D7D"/>
<stop offset="1" stop-color="#C11634"/>
</linearGradient>
<linearGradient id="paint4_linear_181_1015" x1="524.88" y1="511.982" x2="524.88" y2="570.828" gradientUnits="userSpaceOnUse">
<stop stop-color="#DE1180"/>
<stop offset="1" stop-color="#9E26B2"/>
</linearGradient>
<linearGradient id="paint5_linear_181_1015" x1="229.176" y1="517.386" x2="536.619" y2="517.386" gradientUnits="userSpaceOnUse">
<stop stop-color="#DE1180"/>
<stop offset="1" stop-color="#8D20A8"/>
</linearGradient>
<linearGradient id="paint6_linear_181_1015" x1="366.821" y1="387.608" x2="366.821" y2="529.917" gradientUnits="userSpaceOnUse">
<stop stop-color="#E815AD"/>
<stop offset="1" stop-color="#A62472"/>
</linearGradient>
<linearGradient id="paint7_linear_181_1015" x1="333.639" y1="408.795" x2="333.639" y2="574.8" gradientUnits="userSpaceOnUse">
<stop stop-color="#DE1180"/>
<stop offset="1" stop-color="#951EB3"/>
</linearGradient>
<linearGradient id="paint8_linear_181_1015" x1="150.324" y1="364.152" x2="150.324" y2="588.406" gradientUnits="userSpaceOnUse">
<stop stop-color="#DE1180"/>
<stop offset="1" stop-color="#B91AA0"/>
</linearGradient>
<linearGradient id="paint9_linear_181_1015" x1="103.37" y1="335.535" x2="103.37" y2="419.281" gradientUnits="userSpaceOnUse">
<stop stop-color="#C71F66"/>
<stop offset="1" stop-color="#DE22E2"/>
</linearGradient>
</defs>
</svg>
