<svg width="63" height="21" viewBox="0 0 63 21" fill="none" xmlns="http://www.w3.org/2000/svg">
<path fill-rule="evenodd" clip-rule="evenodd" d="M12 2.5H8V6.5H4H0V10.5V14.5V18.5H4H8V14.5H12H16V10.5V6.5V2.5H12ZM4 14.5H8V10.5H12V6.5H8V10.5H4V14.5Z" fill="url(#paint0_linear_519_925)"/>
<path d="M30.4 13.608H27.152L26.568 16H23.824L27.216 4.912H30.4L33.792 16H30.984L30.4 13.608ZM27.568 11.704H29.968L28.768 6.8L27.568 11.704ZM34.7138 16V7.504H36.9218L37.0978 8.488C37.4764 8.06133 37.8764 7.744 38.2977 7.536C38.7191 7.328 39.1991 7.224 39.7378 7.224C40.4631 7.224 41.0338 7.44533 41.4498 7.888C41.8658 8.33067 42.0738 8.95467 42.0738 9.76V16H39.5458V10.488C39.5458 10.1413 39.5218 9.86667 39.4738 9.664C39.4258 9.456 39.3404 9.30933 39.2178 9.224C39.1004 9.13333 38.9378 9.088 38.7298 9.088C38.5538 9.088 38.3804 9.128 38.2098 9.208C38.0444 9.28267 37.8818 9.392 37.7218 9.536C37.5618 9.68 37.4018 9.85333 37.2418 10.056V16H34.7138ZM51.4595 13.552C51.4595 13.872 51.5022 14.104 51.5875 14.248C51.6782 14.392 51.8222 14.5013 52.0195 14.576L51.4995 16.24C50.9982 16.192 50.5742 16.0827 50.2275 15.912C49.8862 15.736 49.6168 15.472 49.4195 15.12C49.0942 15.5093 48.6782 15.8 48.1715 15.992C47.6648 16.1787 47.1475 16.272 46.6195 16.272C45.7448 16.272 45.0462 16.024 44.5235 15.528C44.0062 15.0267 43.7475 14.384 43.7475 13.6C43.7475 12.6773 44.1075 11.9653 44.8275 11.464C45.5528 10.9627 46.5715 10.712 47.8835 10.712H49.0275V10.392C49.0275 9.94933 48.8835 9.62133 48.5955 9.408C48.3128 9.19467 47.8968 9.088 47.3475 9.088C47.0755 9.088 46.7262 9.128 46.2995 9.208C45.8728 9.28267 45.4462 9.392 45.0195 9.536L44.4355 7.856C44.9848 7.648 45.5555 7.49067 46.1475 7.384C46.7448 7.27733 47.2782 7.224 47.7475 7.224C49.0115 7.224 49.9448 7.48267 50.5475 8C51.1555 8.512 51.4595 9.25333 51.4595 10.224V13.552ZM47.4915 14.464C47.7635 14.464 48.0488 14.384 48.3475 14.224C48.6462 14.0587 48.8728 13.8267 49.0275 13.528V12.152H48.4035C47.6995 12.152 47.1822 12.2613 46.8515 12.48C46.5208 12.6933 46.3555 13.008 46.3555 13.424C46.3555 13.7493 46.4542 14.0053 46.6515 14.192C46.8542 14.3733 47.1342 14.464 47.4915 14.464ZM57.3093 14.464C57.7306 14.464 58.0693 14.3973 58.3253 14.264C58.5866 14.1307 58.7173 13.9307 58.7173 13.664C58.7173 13.4827 58.6666 13.3307 58.5653 13.208C58.4639 13.0853 58.2693 12.968 57.9813 12.856C57.6933 12.744 57.2666 12.6107 56.7013 12.456C56.1839 12.3173 55.7253 12.1413 55.3253 11.928C54.9306 11.7147 54.6213 11.44 54.3973 11.104C54.1786 10.768 54.0693 10.3493 54.0693 9.848C54.0693 9.34133 54.2106 8.89067 54.4933 8.496C54.7759 8.10133 55.1919 7.792 55.7413 7.568C56.2906 7.33867 56.9626 7.224 57.7573 7.224C58.5146 7.224 59.1733 7.32267 59.7333 7.52C60.2986 7.712 60.7866 7.95733 61.1973 8.256L60.1893 9.744C59.8373 9.52533 59.4586 9.352 59.0533 9.224C58.6479 9.09067 58.2399 9.024 57.8293 9.024C57.4186 9.024 57.1119 9.08 56.9093 9.192C56.7119 9.29867 56.6133 9.46133 56.6133 9.68C56.6133 9.824 56.6639 9.94933 56.7653 10.056C56.8719 10.1573 57.0693 10.264 57.3573 10.376C57.6453 10.4827 58.0666 10.616 58.6213 10.776C59.1706 10.9307 59.6479 11.1093 60.0533 11.312C60.4639 11.5147 60.7813 11.7867 61.0052 12.128C61.2293 12.464 61.3413 12.9093 61.3413 13.464C61.3413 14.0827 61.1573 14.6027 60.7893 15.024C60.4213 15.44 59.9333 15.752 59.3253 15.96C58.7173 16.168 58.0506 16.272 57.3253 16.272C56.5039 16.272 55.7786 16.1547 55.1493 15.92C54.5199 15.6853 53.9839 15.376 53.5413 14.992L54.8133 13.568C55.1439 13.824 55.5173 14.0373 55.9333 14.208C56.3546 14.3787 56.8133 14.464 57.3093 14.464Z" fill="url(#paint1_linear_519_925)"/>
<defs>
<linearGradient id="paint0_linear_519_925" x1="8" y1="2.5" x2="8" y2="18.5" gradientUnits="userSpaceOnUse">
<stop stop-color="white"/>
<stop offset="1" stop-color="#999999"/>
</linearGradient>
<linearGradient id="paint1_linear_519_925" x1="43.5" y1="0" x2="43.5" y2="21" gradientUnits="userSpaceOnUse">
<stop stop-color="white"/>
<stop offset="1" stop-color="#999999"/>
</linearGradient>
</defs>
</svg>
