<svg width="353" height="556" viewBox="0 0 353 556" fill="none" xmlns="http://www.w3.org/2000/svg">
<path d="M88.4098 271.002C90.6497 271.147 101.132 271.871 116.458 272.953C122.272 263.421 129.369 246.408 127.777 221.789C127.487 217.712 136.013 241.444 130.702 273.953C160.317 276.017 200.609 278.81 235.817 280.912C237.126 267.183 238.963 254.524 238.963 254.524C239.718 264.497 241.429 273.538 243.474 281.402C248.287 281.73 253.012 281.956 257.536 282.214C257.479 260.81 262.821 223.764 262.821 223.764C264.828 249.793 272.152 270.845 277.556 283.296C299.923 284.397 314.658 284.712 313.758 283.611C281.69 243.262 307.492 222.047 299.432 187.436C289.756 145.962 254.749 137.839 257.203 107.136C259.134 82.1516 264.325 36.8894 233.162 25.7405C233.162 25.7405 208.738 -3.59751 167.647 10.0617C116.817 26.9108 133.062 104.984 128.934 120.524C123.064 142.728 112.029 150.139 102.887 175.344C93.569 200.85 104.573 218.568 105.108 236.178C105.58 253.788 82.7977 270.694 88.4098 271.002Z" fill="black"/>
<path d="M315.016 278.124C310.82 270.99 307.133 263.503 305.157 255.72C302.949 247.975 304.415 240.211 306.328 232.227C308.228 224.28 310.436 216.164 311.575 207.689C312.613 199.246 312.714 190.318 310.285 181.812C308.008 173.293 303.515 165.447 297.828 158.998C292.209 152.448 285.666 147.088 279.362 141.803C273.12 136.461 266.891 131.176 262.336 124.532C257.668 117.983 255.013 110.049 254.39 101.756C253.679 110.024 255.491 118.7 259.769 126.137C263.985 133.624 270.056 139.764 276.077 145.465C282.098 151.203 288.17 156.683 293.178 162.874C298.148 169.058 302.037 175.967 303.943 183.51C305.875 191.029 306.158 198.975 305.22 206.934C304.396 214.918 302.534 222.902 301.074 231.157C300.382 235.291 299.74 239.506 299.684 243.866C299.602 248.233 300.502 252.706 301.93 256.708C304.975 264.723 309.555 271.852 315.016 278.124Z" fill="black"/>
<path d="M138.089 37.4805C133.766 46.7858 131.854 57.0035 129.928 67.0261C128.192 77.118 126.952 87.2727 125.826 97.3897L124.046 112.49C123.442 117.536 122.586 122.261 121.101 126.866C118.194 136.121 112.576 144.055 106.272 152.096C103.208 156.179 100.099 160.439 97.501 165.088C94.8962 169.725 92.7571 174.67 91.2534 179.779C89.8944 184.957 88.9129 190.047 88.3466 195.288C87.7552 200.516 87.7929 205.896 88.485 211.137C89.1582 216.397 90.404 221.392 91.4106 226.287C92.4362 231.169 93.0087 236.152 93.0779 241.072C93.3799 250.843 87.7866 260.325 79.6138 266.34C88.592 261.552 95.4499 251.995 96.2426 241.205C96.6264 235.957 96.3244 230.742 95.6449 225.589C94.9906 220.442 93.9336 215.497 93.6002 210.608C92.82 200.919 94.5062 190.928 97.2556 181.585C98.7845 176.973 100.678 172.519 103.119 168.309C105.529 164.081 108.48 160.124 111.563 156.097C114.595 152.045 117.76 147.88 120.497 143.325C123.228 138.776 125.568 133.875 127.091 128.729C128.588 123.588 129.368 118.228 129.815 113.144C130.337 108.023 130.658 102.926 130.979 97.8427C131.658 87.6817 132.193 77.5395 133.143 67.4477C133.986 57.3433 135.201 47.264 138.089 37.4805Z" fill="black"/>
<path d="M139.02 204.455C76.0534 275.299 -0.195302 421.392 16.8866 449.314C35.9189 480.414 126.764 379.533 123.637 374.966C120.982 371.084 150.515 283.692 171.964 219.788C193.387 155.94 154.592 186.933 139.02 204.455Z" fill="#D3766A"/>
<path d="M139.02 204.455C76.0534 275.299 -0.195302 421.392 16.8866 449.314C35.9189 480.414 126.764 379.533 123.637 374.966C120.982 371.084 150.515 283.692 171.964 219.788C193.387 155.94 154.592 186.933 139.02 204.455Z" fill="black" stroke="white" stroke-width="2" stroke-miterlimit="10"/>
<path d="M147.495 293.099C141.354 311.741 135.717 329.225 131.439 343.199C121.705 343.633 93.2419 342.06 63.6648 313.641C72.5549 297.874 82.1812 282.038 92.1031 266.913C99.5399 274.746 117.584 290.016 147.495 293.099Z" fill="black" stroke="white" stroke-width="1.25833" stroke-miterlimit="10"/>
<path d="M311.485 480.616H79.426L95.0741 374.609L95.1247 374.266L94.9526 373.965L94.9509 373.966C94.9525 373.965 94.9525 373.965 94.9525 373.965L94.9519 373.964L94.949 373.959L94.9364 373.937L94.8847 373.845C94.8387 373.763 94.7699 373.64 94.6805 373.477C94.5015 373.151 94.2396 372.666 93.9107 372.036C93.2529 370.776 92.3274 368.938 91.2615 366.632C89.129 362.017 86.4389 355.538 84.2062 348.077C79.727 333.11 77.1525 314.403 84.3468 298.86L84.3473 298.859C88.0173 290.907 102.552 267.295 119.632 243.142C128.163 231.079 137.312 218.906 146.033 208.512C154.767 198.103 163.025 189.536 169.776 184.634C182.318 175.534 197.213 175.1 210.534 178.993C223.877 182.894 235.485 191.097 241.329 199.016C258.438 222.204 271.211 254.739 282.109 300.596C292.952 346.22 301.919 404.942 311.485 480.616Z" fill="white" stroke="black" stroke-width="2"/>
<path d="M124.398 233.233C119.195 240.374 114.143 247.616 109.179 254.927C110.531 252.083 111.897 249.245 113.23 246.395C113.325 246.188 113.023 246.018 112.922 246.225C111.072 249.799 109.374 253.423 107.719 257.066C101.081 266.894 94.6385 276.853 88.4223 286.945C85.7861 291.23 83.3638 295.59 81.5833 300.309C79.8594 304.876 78.7898 309.683 78.2236 314.521C77.6573 319.372 77.6133 324.248 77.9908 329.112C78.3746 334.126 78.9848 339.09 80.1048 343.992C81.3757 349.522 83.1059 355.027 85.3457 360.249C86.4468 362.81 87.6233 365.358 88.8879 367.85C90.0456 370.121 92.3987 374.758 92.3672 374.934C91.8954 377.501 91.4109 379.3 91.0837 381.458C90.7503 383.654 90.4231 385.856 90.0896 388.052C89.429 392.45 83.7162 435.246 83.0744 439.65C81.7972 448.389 80.6962 457.135 79.6077 465.899C78.9786 470.926 78.6514 475.997 77.9467 481.018C77.9153 481.219 78.2236 481.301 78.2613 481.093C78.9848 476.721 80.067 472.411 80.8598 468.057C81.6525 463.697 82.4641 459.33 83.2821 454.97C84.9368 446.162 91.2976 398.874 92.6755 390.015C93.0593 387.568 93.4368 385.114 93.8206 382.666C94.1981 380.232 94.8524 376.96 94.7581 374.494C94.7581 374.494 86.9123 358.368 83.8609 347.068C82.5837 342.324 81.275 337.385 80.7402 332.497C80.218 327.684 80.1677 322.839 80.5641 318.02C80.9604 313.2 81.8664 308.412 83.345 303.807C84.8675 299.05 87.0571 294.627 89.5045 290.28C94.6259 281.176 100.075 272.241 105.592 263.37C111.853 253.316 118.188 243.3 124.662 233.384C124.776 233.214 124.511 233.082 124.398 233.233Z" fill="black"/>
<path d="M16.8863 449.314C32.9615 469.939 73.9076 471.895 176.531 486.511C190.731 488.53 231.967 392.148 216.911 389.21C197.948 385.511 123.561 375.255 118.025 375.186C71.3469 374.658 5.98279 435.322 16.8863 449.314Z" fill="black"/>
<path d="M196.349 385.63C196.349 385.63 239.724 389.896 261.821 399.189C291.41 411.634 311.827 434.561 319.805 444.69C336.459 465.824 362.11 528.439 345.361 538.971C330.205 548.509 307.215 483.183 307.215 483.183C307.215 483.183 341.643 545.917 321.283 554.046C300.923 562.175 278.55 484.819 278.55 484.819C278.55 484.819 312.481 550.069 290.152 555.128C273.284 558.953 249.074 490.034 249.074 490.034C249.074 490.034 277.845 546.326 260.669 551.001C241.687 556.172 215.35 493.96 215.35 493.96C169.679 498.503 146.073 481.981 130.683 468.234C126.965 464.905 196.349 385.63 196.349 385.63Z" fill="white" stroke="black" stroke-width="2.5" stroke-miterlimit="10"/>
<path d="M296.708 460.721C301.018 467.944 305.435 475.224 309.084 482.811C312.739 490.393 316.131 498.107 319.063 505.996C326.254 525.343 327.732 538.581 327.55 537.776C323.284 518.674 310.625 491.33 306.97 483.743C303.321 476.18 300.055 468.429 296.413 460.854C296.324 460.659 296.608 460.552 296.708 460.721Z" fill="black"/>
<path d="M269.088 473.418C274.19 482.881 279.607 492.085 284.295 501.775C288.957 511.42 292.543 520.977 296.532 530.911C296.84 531.679 296.324 531.591 295.985 530.836C291.599 521.065 286.792 512.37 282.3 502.649C277.821 492.966 273.681 483.032 268.849 473.519C268.779 473.374 269.012 473.273 269.088 473.418Z" fill="black"/>
<path d="M243.431 480.056C251.975 494.117 257.914 509.733 263.369 525.198C263.64 525.966 262.992 525.783 262.671 525.016C256.322 509.884 251.453 497.968 242.94 480.358C242.808 480.074 243.248 479.754 243.431 480.056Z" fill="black"/>
<path d="M225.36 386.984C226.042 387.056 226.636 387.119 227.136 387.173L144.199 484.765C143.996 484.75 143.732 484.73 143.411 484.705C142.565 484.639 141.322 484.538 139.735 484.399C136.56 484.121 132.008 483.689 126.503 483.076C115.492 481.851 100.677 479.9 85.4544 477.003C70.223 474.104 54.622 470.265 42.0194 465.271C35.7182 462.774 30.1986 460.001 25.8585 456.933C21.5116 453.861 18.4132 450.54 16.8527 446.97C13.7601 439.893 16.4672 431.834 23.1886 423.534C29.8845 415.265 40.3712 407.02 52.1887 399.758C63.9949 392.502 77.0676 386.267 88.882 381.996C100.738 377.71 111.187 375.455 117.8 376.031C131.474 377.223 159.274 380.058 183.665 382.596C195.858 383.865 207.196 385.059 215.486 385.936C219.631 386.375 223.014 386.734 225.36 386.984Z" fill="black" stroke="white" stroke-width="2"/>
<path d="M73.4293 388.203C80.0607 383.673 98.9043 372.908 117.886 375.035C118.1 375.06 118.106 375.362 117.893 375.368C102.327 375.846 80.3816 384.611 73.5992 388.474C73.4167 388.574 73.2657 388.316 73.4293 388.203Z" fill="black"/>
<path d="M126.764 468.617C159.971 433.447 189.536 391.443 195.211 384.491C195.482 384.164 194.915 383.768 194.664 384.114C189.454 391.223 150.458 435.561 126.166 468.202C125.883 468.579 126.449 468.957 126.764 468.617Z" fill="black"/>
<path d="M259.009 220.625C326.871 306.978 352.471 462.105 314.803 474.198C280.388 485.246 138.838 449.824 96.6711 435.504C84.2891 431.295 122.536 335.007 135.786 339.493C151.799 344.91 239.341 365.654 241.04 365.692C244.676 365.773 225.222 270.266 216.873 226.992C205.246 166.693 233.527 188.191 259.009 220.625Z" fill="white" stroke="black" stroke-width="1.25833" stroke-miterlimit="10"/>
<path d="M22.6306 303.31C15.4644 311.439 21.2654 321.046 21.2654 321.046C21.2654 321.046 12.9037 323.28 8.64428 330.421C3.76824 338.6 14.4515 349.831 14.4515 349.831C14.4515 349.831 6.45477 353.845 2.71752 361.835C-1.16444 370.134 7.99624 383 7.99624 383C7.99624 383 2.60427 390.827 4.32819 400.057C7.27269 415.836 30.0926 424.789 44.5445 430.628C58.9902 436.467 105.442 439.499 114.237 440.972L152.516 348.566C152.516 348.566 95.1799 303.945 77.2172 299.497C62.0794 295.747 30.6714 294.187 22.6306 303.31Z" fill="white" stroke="black" stroke-width="2.5" stroke-miterlimit="10"/>
<path d="M22.5173 319.826C39.5614 319.952 55.6429 325.117 71.9824 329.358C72.3473 329.452 72.19 330.018 71.8314 329.924C55.6304 325.52 38.7561 324.387 22.4166 320.631C21.9574 320.53 22.058 319.826 22.5173 319.826Z" fill="black"/>
<path d="M15.244 348.742C19.1008 348.887 22.8946 350.303 26.5438 351.448C30.4761 352.681 34.3769 353.983 38.2652 355.342C46.048 358.067 53.7679 360.967 61.3997 364.094C61.7394 364.232 61.6073 364.786 61.2486 364.66C53.491 361.961 45.6894 359.375 37.8185 357.003C33.8799 355.814 29.935 354.663 25.9776 353.537C22.2969 352.486 18.3332 351.687 14.9483 349.837C14.4575 349.56 14.6652 348.723 15.244 348.742Z" fill="black"/>
<path d="M8.32969 383.107C11.6831 383.101 15.2694 384.925 18.3712 386.083C21.8882 387.398 25.4179 388.694 28.9538 389.971C36.0193 392.519 43.0911 395.067 50.2385 397.37C50.5971 397.483 50.4461 398.05 50.0875 397.936C42.808 395.634 35.5034 393.432 28.2428 391.06C24.6754 389.896 21.1206 388.713 17.5721 387.511C14.5521 386.492 10.6639 385.554 8.19127 383.453C8.04656 383.34 8.15981 383.107 8.32969 383.107Z" fill="black"/>
<path d="M239.775 361.778C240.87 361.124 220.535 268.945 213.715 220.839C206.895 172.739 228.381 177.357 259.292 218.479C292.405 262.527 351.364 381.767 330.941 470.058C324.329 498.647 119.491 458.594 119.491 458.594L147.093 340.865C147.086 340.871 238.076 362.791 239.775 361.778Z" fill="black" stroke="white" stroke-width="2" stroke-miterlimit="10"/>
<path d="M323.24 353.039C289.831 362.842 253.61 357.865 238.825 355.084C236.685 343.514 231.501 318.441 226.216 291.343C261.317 295.231 285.138 290.223 298.149 285.863C307.655 306.412 316.564 329.338 323.24 353.039Z" fill="black" stroke="white" stroke-width="2" stroke-miterlimit="10"/>
<path d="M146.299 446.489C158.757 405.499 165.627 360.526 167.383 352.775C167.465 352.41 166.867 352.316 166.798 352.693C165.47 360.388 152.044 410.929 145.651 446.401C145.582 446.81 146.18 446.886 146.299 446.489Z" fill="black"/>
<path d="M278.279 375.4C274.328 374.72 169.754 345.269 146.884 341.727C146.526 341.67 146.846 340.469 147.224 340.538C217.489 352.932 275.222 371.719 279.645 373.487C284.898 375.57 285.647 376.665 278.279 375.4Z" fill="black"/>
<path d="M238.762 362.716C238.838 362.515 231.866 327.218 230.633 325.016C229.369 322.733 226.625 317.661 225.505 315.296C223.24 310.527 221.277 305.651 219.195 300.819C219.019 300.422 219.623 300.108 219.799 300.51C222.051 305.185 224.706 309.665 227.38 314.088C228.714 316.258 230.042 318.454 231.376 320.606C231.476 320.751 224.939 286.115 224.027 280.037C223.951 279.591 224.442 279.465 224.581 279.842C226.544 285.964 240.253 355.342 242.128 363.024C242.128 363.031 240.832 363.005 238.762 362.716Z" fill="black"/>
<path d="M161.67 465.912C154.844 464.024 127.475 459.601 120.818 458.645C121.473 456.235 123.417 446.439 123.234 443.677C123.215 443.419 122.825 443.262 122.668 443.494C121.114 445.772 118.446 457.821 117.654 460.664C117.503 461.205 154.523 465.855 161.613 466.233C161.815 466.239 161.871 465.968 161.67 465.912Z" fill="black"/>
<path d="M152.51 192.394C152.51 192.394 155.259 219.48 177.714 223.701C200.169 227.917 242.134 198.421 242.134 198.421C242.134 198.421 225.279 175.74 194.834 175.671C165.546 175.595 152.51 192.394 152.51 192.394Z" fill="black" stroke="white" stroke-width="2" stroke-miterlimit="10"/>
<path d="M216.986 184.825C215.784 188.896 194.569 214.541 175.769 212.578C169.648 211.929 171.699 178.357 171.699 178.357L171.284 175.847L165.501 140.67L207.8 116.818L213.897 113.691C213.897 113.691 214.847 123.418 215.904 135.549C215.954 136.109 216.011 136.675 216.055 137.279C216.13 137.965 216.212 138.606 216.256 139.248C216.439 141.06 216.615 142.904 216.753 144.753C216.867 146.156 216.98 147.522 217.043 149C217.143 150.485 217.213 151.92 217.313 153.404C217.993 168.014 217.471 183.088 216.986 184.825Z" fill="white"/>
<path d="M215.904 136.543C204.372 163.622 181.646 173.626 171.29 176.847L165.508 141.671L207.807 117.819L213.904 114.692C213.897 114.686 214.841 124.413 215.904 136.543Z" fill="white" stroke="black" stroke-width="2.5" stroke-miterlimit="10"/>
<path d="M124.845 74.998C108.386 135.367 142.682 152.039 155.699 155.575C167.521 158.784 208.178 168.209 230.784 109.866C253.396 51.5238 230.533 24.7905 203.887 16.02C177.248 7.24937 141.31 14.6295 124.845 74.998Z" fill="white" stroke="black" stroke-width="2.5" stroke-miterlimit="10"/>
<path d="M146.589 63.1884C148.055 63.3646 149.439 63.2828 150.911 63.3079C152.566 63.3394 153.887 63.5282 155.34 62.5907C156.121 62.0874 156.391 60.7535 155.976 59.9482C155.001 58.0796 152.981 57.5385 150.987 57.419C148.822 57.2931 147.123 57.7524 145.368 59.017C143.657 60.2502 144.651 62.9556 146.589 63.1884Z" fill="black"/>
<path d="M189.611 69.2161C188.214 68.7316 187.006 68.0458 185.679 67.4229C184.175 66.7183 182.911 66.3156 182.017 64.8308C181.539 64.038 181.885 62.7168 182.609 62.182C184.301 60.9299 186.358 61.3326 188.202 62.1065C190.203 62.9433 191.53 64.1009 192.549 66.0136C193.531 67.8634 191.448 69.8515 189.611 69.2161Z" fill="black"/>
<path d="M175.814 88.5124C175.883 88.3614 176.09 88.7893 176.04 88.9592C174.889 93.0613 174.253 97.9562 177.657 100.253C177.764 100.322 177.701 100.53 177.563 100.473C173.158 98.7049 174.064 92.2119 175.814 88.5124Z" fill="black"/>
<path d="M180.576 85.1086C187.352 86.2474 184.571 99.7179 178.299 98.6609C172.114 97.6228 174.895 84.1523 180.576 85.1086Z" fill="black"/>
<path d="M183.074 86.367C184.094 87.3737 184.968 88.9529 186.359 89.387C187.969 89.8903 189.498 88.7327 190.851 87.6002C190.989 87.4806 191.084 87.6253 191.046 87.8015C190.549 90.3874 189.014 92.8348 186.17 92.6461C183.571 92.4762 182.231 89.8149 182.124 87.0906C182.099 86.5809 182.665 85.958 183.074 86.367Z" fill="black"/>
<path d="M150.962 80.283C150.962 80.1194 150.59 80.4088 150.559 80.585C149.791 84.7753 148.206 89.45 144.141 90.0162C144.016 90.0351 143.984 90.2427 144.129 90.2553C148.86 90.6013 150.905 84.3789 150.962 80.283Z" fill="black"/>
<path d="M148.181 75.13C141.593 73.1733 138.164 86.4928 144.274 88.3048C150.276 90.0916 153.705 76.7721 148.181 75.13Z" fill="black"/>
<path d="M145.18 75.2937C143.946 75.7278 142.575 76.7408 141.298 76.5017C139.813 76.2248 139.108 74.5072 138.536 72.884C138.479 72.7141 138.34 72.8022 138.29 72.9783C137.567 75.5076 137.724 78.3766 140.045 79.4902C142.159 80.5095 144.362 78.7478 145.62 76.3696C145.846 75.9291 145.677 75.1175 145.18 75.2937Z" fill="black"/>
<path d="M165.149 120.071C163.985 120.895 162.765 122.091 161.217 121.978C159.732 121.864 158.122 120.933 156.863 120.197C156.737 120.122 156.58 120.247 156.649 120.386C157.486 122.173 159.619 123.55 161.626 123.519C163.583 123.488 164.791 121.996 165.527 120.329C165.627 120.096 165.319 119.952 165.149 120.071Z" fill="black"/>
<path d="M151.037 101.222C151.037 101.222 148.822 107.249 148.174 110.181C148.118 110.458 148.797 110.741 149.779 111.018C149.823 111.043 149.848 111.068 149.892 111.049C154.894 112.987 160.5 112.339 164.571 108.803C164.835 108.558 164.526 108.174 164.224 108.3C159.738 110.294 155.309 110.093 150.697 109.162C150.666 108.306 154.844 98.9629 154.384 98.8308C152.811 98.34 149.414 98.7427 147.394 98.8811C151.647 86.1908 157.908 74.287 161.953 61.5841C162.092 61.1311 161.456 60.8417 161.23 61.2255C153.793 73.2426 148.571 87.7386 143.839 100.731C143.235 102.348 149.754 101.467 151.037 101.222Z" fill="black"/>
<path d="M150.943 110.093C150.943 110.093 152.711 114.56 156.133 116.913C157.392 117.788 158.845 118.385 160.525 118.385C163.986 118.398 164.854 115.453 164.942 112.761C165.017 110.546 164.533 108.489 164.533 108.489C164.533 108.489 158.638 111.647 150.943 110.093Z" fill="black"/>
<path d="M160.527 117.886H160.525C159.113 117.886 157.865 117.431 156.751 116.723C157.344 115.422 158.464 114.453 159.852 113.849C161.236 113.248 162.862 113.022 164.42 113.194C164.341 114.353 164.098 115.474 163.573 116.325C163.003 117.248 162.083 117.891 160.527 117.886Z" fill="white" stroke="black"/>
<path d="M227.418 108.853C220.982 106.588 209.097 83.6803 217.641 51.9074C217.641 51.9074 211.941 80.9686 212.878 85.744C213.822 90.5131 206.253 72.8713 212.784 47.1509C212.784 47.1509 195.733 53.2979 182.722 53.2161C169.711 53.1406 162.375 50.9134 161.765 49.7934C161.154 48.6735 180.476 48.1765 186.856 44.024C186.856 44.024 150.553 49.7305 135.459 46.6224C133.71 46.2638 141.751 10.5523 168.849 2.19068C195.953 -6.17095 227.5 20.2981 234.528 32.4788C234.528 32.4788 245.481 37.38 253.05 57.8216C260.632 78.2632 234.352 111.294 227.418 108.853Z" fill="black"/>
<path d="M218.075 110.181C218.075 110.181 234.999 93.4073 242.851 99.7808C250.697 106.154 235.541 132.177 224.606 134.127C213.677 136.077 211.67 125.998 211.67 125.998L218.075 110.181Z" fill="white" stroke="black" stroke-width="2.5" stroke-miterlimit="10"/>
<path d="M238.322 107.13C238.491 107.142 238.479 107.381 238.328 107.413C230.621 109.017 225.638 114.988 221.737 121.405C224.354 119.14 227.525 118.209 230.621 121.399C230.784 121.569 230.551 121.827 230.356 121.745C227.531 120.581 225.317 120.707 222.901 122.702C221.189 124.111 219.849 126.049 218.49 127.792C218.037 128.37 216.942 127.817 217.32 127.125C217.345 127.074 217.383 127.024 217.408 126.967C218.887 117.781 228.324 106.268 238.322 107.13Z" fill="black"/>
</svg>
